<svg id="Layer_1" data-name="Layer 1" xmlns="http://www.w3.org/2000/svg" viewBox="0 0 368.5 72.75"><defs><style>.cls-1{fill:#050500;}</style></defs><path class="cls-1" d="M88.56,37.85h0A20,20,0,0,0,68.8,18.92a21.24,21.24,0,0,0-15.73,6.82,21.24,21.24,0,0,0-15.59-6.87c-6.43,0-13.1,2.65-17.26,7.69-4.12-4.41-9.92-8.43-15.31-8.43a4.91,4.91,0,1,0,0,9.82C9.46,28,16,35.13,16,38.6c0,.06,0,.12,0,.19V67h0a4.9,4.9,0,0,0,9.8,0c0-.18,0-.36,0-.54V38.6h.08c0-7.27,6.95-9.91,11.63-9.91,5,0,10.58,3.83,10.92,9.37,0,.17,0,.34,0,.51h0v0h0V67h0a4.9,4.9,0,0,0,9.79,0h0v0h0V38.6h0c0-.12,0-.23,0-.34v-.41h0v0c.44-7.15,7-9.07,10.58-9.07,4.71,0,10,4,10,9.83h0V67h0a4.9,4.9,0,0,0,9.79,0h0v0h0V38.57h0c0-.1,0-.2,0-.3Z"/><path class="cls-1" d="M286.61,0a5.88,5.88,0,1,0,5.87,5.88A5.88,5.88,0,0,0,286.61,0Z"/><path class="cls-1" d="M286.61,19.23a4.9,4.9,0,0,0-4.9,4.9v0h0V66.75h0a4.9,4.9,0,1,0,9.79,0h0V24.17h0v0A4.89,4.89,0,0,0,286.61,19.23Z"/><path class="cls-1" d="M159.18,24.47h0a4.07,4.07,0,0,0,0-.5,4.9,4.9,0,0,0-9.8,0,4.07,4.07,0,0,0,0,.5h0V51.33h0c0,8.51-7.45,11.6-12.46,11.6-5.55,0-11.73-4.76-11.73-11.6h-.06V25.4a4.34,4.34,0,0,0,.1-1,4.9,4.9,0,0,0-9.8,0v0h-.1v27h0a21.77,21.77,0,0,0,21.54,21.24c10.8,0,22.28-7.51,22.28-21.42h0Z"/><path class="cls-1" d="M363.56,47.63a4.91,4.91,0,0,0,4.94-4.89v-.19a4.49,4.49,0,0,0-.11-.83,26.49,26.49,0,1,0-3.69,17.6c.24-.39.46-.78.68-1.17a4.92,4.92,0,0,0,.36-1.85v-.18a3.86,3.86,0,0,0-.11-.84,4.94,4.94,0,0,0-9.11-1.41.75.75,0,0,0-.07.12,16.68,16.68,0,0,1-30.83-6.36Zm-36.27-9.79a16.67,16.67,0,0,1,29.72,0Z"/><path class="cls-1" d="M254.15,18.85a4.9,4.9,0,0,0-4.46,2.88h0L236.6,52.54l-13-30.73,0,0a4.9,4.9,0,0,0-9.06,0l0,0L201.16,53.09,187.87,21.78l0,0a4.9,4.9,0,0,0-9.41,1.91,4.77,4.77,0,0,0,.67,2.46l17.55,41.36h0a4.89,4.89,0,0,0,9.08-.18L219,36.14l12.94,30.49a4.89,4.89,0,0,0,9.27.13l17.41-41a1.08,1.08,0,0,1,.08-.19v0h0a4.85,4.85,0,0,0,.35-1.8A4.91,4.91,0,0,0,254.15,18.85Z"/></svg>