<svg id="Layer_1" data-name="Layer 1" xmlns="http://www.w3.org/2000/svg" viewBox="0 0 510.24 291.34"><defs><style>.cls-1{fill:#050500;}</style></defs><path class="cls-1" d="M160.1,283.18h0v-37.5h0s0-.06,0-.08a7.83,7.83,0,1,0-15.66,0v.08h0v37.5a7.83,7.83,0,1,0,15.66,0Z"/><path class="cls-1" d="M216.56,245.6a7.83,7.83,0,0,0-15.66,0v.08h0v37.5h0a7.83,7.83,0,0,0,15.66,0h0v-37.5h0S216.56,245.62,216.56,245.6Z"/><path class="cls-1" d="M94.77,290.6a7.82,7.82,0,0,0,7.82-7.82v-.08h0V245.2h0a7.83,7.83,0,1,0-15.66,0h0v37.5h0s0,.05,0,.08A7.83,7.83,0,0,0,94.77,290.6Z"/><path class="cls-1" d="M426.86,67.16a8.95,8.95,0,1,0,8.95-8.95A9,9,0,0,0,426.86,67.16Z"/><path class="cls-1" d="M368.82,67.16a8.95,8.95,0,1,0,8.95-8.95A9,9,0,0,0,368.82,67.16Z"/><path class="cls-1" d="M310.78,67.16a8.95,8.95,0,1,0,9-8.95A9,9,0,0,0,310.78,67.16Z"/><path class="cls-1" d="M239.1,130.47H215V75.22h0c0-.08,0-.15,0-.23a7.83,7.83,0,1,0-15.66,0,1.79,1.79,0,0,0,0,.23h0v55.25H160.09V75.22h0a1.79,1.79,0,0,0,0-.23,7.83,7.83,0,1,0-15.66,0c0,.08,0,.15,0,.23h0v55.25H105.19V75.22h0c0-.08,0-.15,0-.23a7.83,7.83,0,1,0-15.66,0,1.79,1.79,0,0,0,0,.23h0v55.25H50.28V75.22h0a1.79,1.79,0,0,0,0-.23,7.83,7.83,0,1,0-15.66,0c0,.08,0,.15,0,.23h0v55.25H8a7.83,7.83,0,0,0,0,15.66l.21,0v0H34.63v62.34H15.21a7.83,7.83,0,1,0,0,15.65H231.14v0c.23,0,.46,0,.7,0a7.83,7.83,0,1,0,0-15.65c-.24,0-.47,0-.7,0v0H215V146.13h24.1a7.83,7.83,0,1,0,0-15.66Zm-94.66,15.66v62.34H105.19V146.13Zm-94.16,0H89.54v62.34H50.28Zm149.07,62.34H160.09V146.13h39.26Z"/><path class="cls-1" d="M20.92,291.34A7.84,7.84,0,0,0,25,290.2c3.56-2.15,21.51-14.37,25.29-44a7.89,7.89,0,1,0-15.65-2c-2.87,22.43-15.33,31-17.8,32.49a7.9,7.9,0,0,0,4.09,14.65Z"/><path class="cls-1" d="M7.89,62.51a7.86,7.86,0,0,0,1.85-.22c8.47-2,17.19-7.14,24.92-13.92H231.84a7.83,7.83,0,1,0,0-15.65H48.58c5.17-7.52,8.88-15.66,10.25-23.46A7.89,7.89,0,1,0,43.28,6.53C40.43,22.78,21.64,43.18,6,47A7.89,7.89,0,0,0,7.89,62.51Z"/><path class="cls-1" d="M271.08,291a7.8,7.8,0,0,0,5.16-1.95l0,.05c1-.9,23.92-21.45,26.74-65H494.58V283h0a7.83,7.83,0,0,0,15.66,0h0V215.93h0a7.83,7.83,0,0,0-7.81-7.46H489.09V152.91h0a7.82,7.82,0,0,0-7.82-7.82H468V95.4h0a7.83,7.83,0,0,0-7.83-7.83H295.41a7.84,7.84,0,0,0-7.83,7.83h0V215.25h-.05c0,42.07-20.79,61.23-21.64,62l.05.06A7.82,7.82,0,0,0,271.08,291Zm32.15-82.54V160.74h170.2v47.73Zm0-63.38V103.23H452.29v41.86Z"/><path class="cls-1" d="M279.75,48.44H454.07a7.45,7.45,0,0,0,.95.07c22.91,0,36.66-15,41.46-27.78a7.89,7.89,0,1,0-14.77-5.55c-3,8.1-11.85,17.54-26.69,17.54a7.45,7.45,0,0,0-.95.07H279.75a7.83,7.83,0,1,0,0,15.65Z"/><path class="cls-1" d="M401.46,277.71a7,7,0,0,0,0-.8h0V245.6a7.83,7.83,0,0,0-15.66,0v31.31h0c0,.26,0,.53,0,.8a7.83,7.83,0,0,0,15.66,0Z"/><path class="cls-1" d="M455.85,277.71c0-.27,0-.54,0-.8h0V245.6a7.83,7.83,0,0,0-15.66,0v31.31h0a7,7,0,0,0,0,.8,7.83,7.83,0,0,0,15.66,0Z"/><path class="cls-1" d="M347.07,245.6h0a7.83,7.83,0,1,0-15.66,0v31.31h0c0,.26,0,.53,0,.8a7.83,7.83,0,0,0,15.66,0,7,7,0,0,0,0-.8h0Z"/></svg>