<svg id="Layer_1" data-name="Layer 1" xmlns="http://www.w3.org/2000/svg" viewBox="0 0 510.24 137.71"><defs><style>.cls-1{fill:#050505;}</style></defs><path class="cls-1" d="M75.67,133.85h0V116.12h0v0a3.7,3.7,0,0,0-7.4,0v0h0v17.73a3.7,3.7,0,0,0,7.4,0Z"/><path class="cls-1" d="M102.36,116.09a3.7,3.7,0,0,0-7.4,0v0h0v17.73h0a3.7,3.7,0,0,0,7.4,0h0V116.12h0Z"/><path class="cls-1" d="M44.79,137.36a3.7,3.7,0,0,0,3.7-3.7v0h0V115.9h0a3.7,3.7,0,0,0-7.4,0h0v17.72h0v0A3.7,3.7,0,0,0,44.79,137.36Z"/><path class="cls-1" d="M201.76,31.74A4.23,4.23,0,1,0,206,27.52,4.23,4.23,0,0,0,201.76,31.74Z"/><path class="cls-1" d="M174.33,31.74a4.23,4.23,0,1,0,4.23-4.22A4.23,4.23,0,0,0,174.33,31.74Z"/><path class="cls-1" d="M146.9,31.74a4.23,4.23,0,1,0,4.23-4.22A4.23,4.23,0,0,0,146.9,31.74Z"/><path class="cls-1" d="M113,61.67h-11.4V35.55h0v-.11a3.7,3.7,0,0,0-7.4,0s0,.08,0,.11h0V61.67H75.67V35.55h0v-.11a3.7,3.7,0,0,0-7.4,0s0,.08,0,.11h0V61.67H49.72V35.55h0a.37.37,0,0,0,0-.11,3.7,3.7,0,0,0-7.4,0,.37.37,0,0,0,0,.11h0V61.67H23.77V35.55h0s0-.07,0-.11a3.7,3.7,0,0,0-7.4,0v.11h0V61.67H3.76a3.7,3.7,0,0,0,0,7.4H16.37V98.54H7.19a3.7,3.7,0,0,0,0,7.4H109.25v0l.34,0a3.7,3.7,0,1,0,0-7.4h-8V69.07H113a3.7,3.7,0,0,0,0-7.4Zm-44.75,7.4V98.54H49.72V69.07Zm-44.5,0H42.32V98.54H23.77ZM94.23,98.54H75.67V69.07H94.23Z"/><path class="cls-1" d="M9.89,137.71a3.75,3.75,0,0,0,1.92-.54c1.69-1,10.17-6.79,12-20.8a3.73,3.73,0,0,0-7.4-1C15,126,9.12,130.08,8,130.78a3.73,3.73,0,0,0,1.93,6.93Z"/><path class="cls-1" d="M3.73,29.55a3.85,3.85,0,0,0,.88-.11,28.85,28.85,0,0,0,11.77-6.58h93.2a3.7,3.7,0,1,0,0-7.4H23A28.92,28.92,0,0,0,27.81,4.37a3.73,3.73,0,0,0-7.35-1.28c-1.35,7.68-10.23,17.32-17.6,19.1a3.73,3.73,0,0,0,.87,7.36Z"/><path class="cls-1" d="M128.13,137.55a3.68,3.68,0,0,0,2.44-.92l0,0c.49-.43,11.31-10.15,12.64-30.72h90.54v27.82h0a3.7,3.7,0,0,0,7.4,0h0v-31.7h0a3.7,3.7,0,0,0-3.7-3.52h-6.29V72.28h0a3.69,3.69,0,0,0-3.7-3.7h-6.29V45.09h0a3.7,3.7,0,0,0-3.7-3.7H139.63a3.7,3.7,0,0,0-3.7,3.7h0v56.65h0c0,19.89-9.82,28.94-10.22,29.31l0,0a3.69,3.69,0,0,0,2.43,6.48Zm15.2-39V76h80.45V98.54Zm0-30V48.79h70.46V68.58Z"/><path class="cls-1" d="M132.23,22.9h82.4a3.19,3.19,0,0,0,.45,0A20.55,20.55,0,0,0,234.67,9.8a3.73,3.73,0,0,0-7-2.62,13.15,13.15,0,0,1-12.61,8.29,3.19,3.19,0,0,0-.45,0h-82.4a3.7,3.7,0,1,0,0,7.4Z"/><path class="cls-1" d="M189.76,131.27c0-.13,0-.26,0-.38h0v-14.8a3.7,3.7,0,0,0-7.4,0v14.8h0a2.36,2.36,0,0,0,0,.38,3.7,3.7,0,1,0,7.4,0Z"/><path class="cls-1" d="M215.47,131.27c0-.13,0-.26,0-.38h0v-14.8a3.7,3.7,0,1,0-7.4,0h0v14.79h0c0,.12,0,.25,0,.38a3.7,3.7,0,1,0,7.4,0Z"/><path class="cls-1" d="M164.05,116.09h0a3.7,3.7,0,0,0-7.4,0v14.8h0c0,.12,0,.25,0,.38a3.7,3.7,0,0,0,7.4,0c0-.13,0-.26,0-.38h0Z"/><path class="cls-1" d="M327.71,112.86h0a13.51,13.51,0,0,0-13.35-12.79,14.33,14.33,0,0,0-10.63,4.61A14.35,14.35,0,0,0,293.19,100a15.23,15.23,0,0,0-11.66,5.19c-2.79-3-6.71-5.7-10.35-5.7a3.32,3.32,0,1,0,0,6.64c3.08,0,7.47,4.85,7.47,7.19v19.18h0a3.32,3.32,0,0,0,6.63,0c0-.12,0-.24,0-.36V113.36h.05c0-4.91,4.7-6.69,7.86-6.69,3.39,0,7.15,2.58,7.38,6.33,0,.12,0,.23,0,.35h0v19.18h0a3.31,3.31,0,0,0,6.62,0h0V113.36h0v-.5h0v0c.29-4.83,4.75-6.13,7.15-6.13a6.88,6.88,0,0,1,6.73,6.65h0v19.19h0a3.31,3.31,0,0,0,6.62,0h0V113.35h0a1.48,1.48,0,0,0,0-.21Z"/><path class="cls-1" d="M456.06,87.28a4,4,0,1,0,4,4A4,4,0,0,0,456.06,87.28Z"/><path class="cls-1" d="M456.06,100.27a3.32,3.32,0,0,0-3.31,3.32v0h0v28.78h0a3.31,3.31,0,0,0,6.62,0h0V103.61h0v0A3.32,3.32,0,0,0,456.06,100.27Z"/><path class="cls-1" d="M373.12,104.43h0c0-.11,0-.23,0-.34a3.31,3.31,0,0,0-6.62,0c0,.11,0,.23,0,.34h0v18.15h0c0,5.75-5,7.84-8.42,7.84a8.1,8.1,0,0,1-7.93-7.84h0V105.05a2.76,2.76,0,0,0,.07-.65,3.31,3.31,0,1,0-6.62,0v0h-.07V122.7h0a14.72,14.72,0,0,0,14.56,14.35c7.3,0,15.05-5.07,15.05-14.47h0Z"/><path class="cls-1" d="M506.9,119.47a3.33,3.33,0,0,0,3.34-3.31.49.49,0,0,0,0-.12,2.62,2.62,0,0,0-.07-.57,17.93,17.93,0,1,0-2.5,11.89,8.85,8.85,0,0,0,.46-.78,3.28,3.28,0,0,0,.25-1.25v-.13a3.43,3.43,0,0,0-.07-.56,3.35,3.35,0,0,0-6.16-1,.41.41,0,0,0-.05.09,11.28,11.28,0,0,1-20.84-4.3Zm-24.52-6.62a11.27,11.27,0,0,1,20.09,0Z"/><path class="cls-1" d="M435.72,100.63a3.31,3.31,0,0,0-3,1.94h0l-8.84,20.82-8.81-20.76h0a3.31,3.31,0,0,0-6.12,0h0l-9,21.14-9-21.16h0a3.31,3.31,0,0,0-6.36,1.29,3.36,3.36,0,0,0,.45,1.67l11.86,28h0a3.31,3.31,0,0,0,6.14-.12l9-21.09,8.74,20.61A3.31,3.31,0,0,0,427,133l11.76-27.71a1.12,1.12,0,0,0,.05-.13h0a3.32,3.32,0,0,0-3.08-4.53Z"/></svg>