<svg id="Layer_1" data-name="Layer 1" xmlns="http://www.w3.org/2000/svg" viewBox="0 0 140 177"><defs><style>.cls-1{fill:#231f20;}</style></defs><path class="cls-1" d="M114.7,41.3c3.5.6,8.1,1.7,9.3,1.2s1.9-2.6,1.9-2.6a261.2,261.2,0,0,0-28,0c-5.9.6-13.7,1.4-8.6,1.4S111.2,40.8,114.7,41.3Z"/><path class="cls-1" d="M102,34.8c-5.9.6-13.7,1.4-8.6,1.4s21.9-.5,25.4,0,8.1,1.7,9.3,1.2,1.9-2.6,1.9-2.6A217.7,217.7,0,0,0,102,34.8Z"/><path class="cls-1" d="M27.4,14.2c5,0,21.9-.5,25.4,0s8.1,1.6,9.3,1.2S64,12.8,64,12.8a216.1,216.1,0,0,0-27.9,0C30.2,13.4,22.3,14.2,27.4,14.2Z"/><path class="cls-1" d="M34.6,131.5c3.5.6,8.1,1.6,9.3,1.2s1.9-2.6,1.9-2.6a216.1,216.1,0,0,0-27.9,0c-6,.6-13.8,1.4-8.7,1.4S31.1,131,34.6,131.5Z"/><path class="cls-1" d="M86.7,169.5c-3.7.4-8.2.8-9.8,1.1a12.2,12.2,0,0,1,1.8-6.7l1.3.2a220.4,220.4,0,0,0,24.4,2.1l5.7.3a5.9,5.9,0,0,0-2.3-2.6c-1.8-1.3-8.3-1.3-14-.7-3.9.3-12.3.2-14.9.4a10.3,10.3,0,0,0,1.2-3.3,26.5,26.5,0,0,0,.2-2.7l1.8.3c7.2.9,14.7,1.8,24.4,2.1l5.7.2a7.9,7.9,0,0,0-2.3-2.6c-1.8-1.3-8.3-1.2-14-.7s-14.1.2-15.6.5c0-1.8-.6-3.9-2.8-7.7-3.3-5.9-1.7-9.4-2.5-15.6s-2-15.1-1.4-23.2,1.3-17.1,1.2-22.4-.5-9.1.4-14.6-.3-9.1.4-14.7S78,47.8,80.7,43.9s5.1-8.3,10.2-9.8A44.1,44.1,0,0,0,99.3,31c6-.1,14.8-.3,17.1.1s6.9,1.6,7.9,1.2,1.6-2.6,1.6-2.6a158.6,158.6,0,0,0-23.9,0h-.5a8.3,8.3,0,0,0,2-1.6s-.1-1.1-1.3-.7a24.6,24.6,0,0,1-9,2.2c-4,0-5.3,1.4-6.9,2.2s-5.1.6-6.6,4.5-3.7,8.1-5.1,8.5-.6-2.2-.9-4.6-1.3-6.4-1.4-10.4S70.1,19.3,69.2,17a28.9,28.9,0,0,1-1.5-6.9L67,11l-1.9-.9v1.8c.3,2.1.6,3.8.9,6.4H58.5c-12.7-.2-22.6.4-32.2,1.1s10.7.9,18.1,1.7,16,1.3,18.4,0A9.1,9.1,0,0,0,66,18.4c.1,1.4.3,3.1.4,5.4.3,6.3.6,7.4.8,9.5s-.3,3.5-.6,5.9H61.4a311.7,311.7,0,0,0-32.2,1.1c-9.6.6,10.7.8,18.1,1.7s16,1.3,18.4-.1l.6-.4c-.1,1.4-.2,2.6-.2,3.5.1,3.2,1.8,7,1.5,9.3s.2,9.9-2.5,11.7-5.6,4.1-18,4.4c0,0-1.2.9,0,1.2s9.1-.8,13.5,1,4.6,3.1,4.5,4.5-2,2.5-1.8,6.7,2.5,8.3,1.2,11.3-3.2,4.6-3.3,8.5,3.4,10,3.7,14.3-.3,11.4-8.4,11.7-12.3,5.3-14.6,6.6c0,0-1.6,1.9,0,1.3s6.5-4.5,11.6-4.2,10.8,1.1,11.7,3,.9,9.7.2,12.4a39,39,0,0,0-1.3,6.9c-.2,2.1-.6,4-.8,6a6.3,6.3,0,0,0-2.3-1.4c-1.8-.6-8.3-.8-14-.6s-21.1-.5-13.8.2,14.7,1.3,24.5,1.6l5.5.3v.3a17.7,17.7,0,0,0-.1,2.2,31.9,31.9,0,0,0-8.9-.7l-15.9,1.8c-3.4.3,1.5.7,12,0,3.9-.3,8.5,0,11,0h2c.3,1,1.2,1.8,3.2,2.4,4,1.2,4.9.7,5.8,1.8s2.5,2.6,2.5,3.9A13.8,13.8,0,0,1,74,177l6.7-1.2s-2.9.1-3.7-4.6v-.3h1c5.1,0,22-.5,25.5,0s8.1,1.6,9.3,1.2,1.9-2.6,1.9-2.6A217.6,217.6,0,0,0,86.7,169.5Z"/><path class="cls-1" d="M90.3,152.4c-5.9.6-13.7,1.5-8.7,1.5s22-.6,25.5,0,8.1,1.6,9.3,1.1,1.9-2.6,1.9-2.6A261,261,0,0,0,90.3,152.4Z"/><path class="cls-1" d="M120,22c1.2-.4,1.9-2.5,1.9-2.5a217.6,217.6,0,0,0-28,0c-5.9.5-13.7,1.4-8.6,1.4s21.9-.6,25.4,0S118.8,22.5,120,22Z"/><path class="cls-1" d="M94.1,15.3c-5.1.6-12,1.5-7.6,1.5s19.3-.6,22.4,0,7.1,1.6,8.1,1.1,1.7-2.6,1.7-2.6A201.5,201.5,0,0,0,94.1,15.3Z"/><path class="cls-1" d="M82.4,11.2c-5.6.6-13.1,1.5-8.3,1.5s20.9-.6,24.2,0,7.7,1.6,8.9,1.1,1.8-2.6,1.8-2.6A235.6,235.6,0,0,0,82.4,11.2Z"/><path class="cls-1" d="M77,7.1c-4.9.6-11.3,1.4-7.2,1.4S88,8,90.9,8.5s6.8,1.7,7.8,1.2,1.5-2.6,1.5-2.6A149.5,149.5,0,0,0,77,7.1Z"/><path class="cls-1" d="M73.9,3c-4.6.6-10.5,1.4-6.7,1.4s16.8-.5,19.5,0S92.9,6,93.9,5.6,95.3,3,95.3,3l-2.4-.2A6.3,6.3,0,0,0,94,.4,132,132,0,0,0,74.1.4c-4.2.6-9.8,1.5-6.2,1.5s15.7-.6,18.2,0l3.2.8A120.8,120.8,0,0,0,73.9,3Z"/><path class="cls-1" d="M88.7,22.6c-6,.6-13.8,1.4-8.7,1.4s21.9-.5,25.4,0,8.1,1.6,9.3,1.2,1.9-2.6,1.9-2.6A216.1,216.1,0,0,0,88.7,22.6Z"/><path class="cls-1" d="M134.1,50.8c-10.9-.5-32.1-.5-40.7,0s-20,1.5-12.7,1.5,32-.6,37.1,0l4.2.5h-.1L99.1,54.5c-5,.3,2.1.8,17.1,0,5.7-.3,12.2,0,15.8,0s5.9-.1,3.2-.8a15.4,15.4,0,0,0-3.1-.6A5.4,5.4,0,0,0,134.1,50.8Z"/><path class="cls-1" d="M81.4,148.8c4.2,0,18.5-.6,21.4,0s6.8,1.6,7.8,1.2,1.6-2.6,1.6-2.6a153.4,153.4,0,0,0-23.5,0C83.7,147.9,77.1,148.8,81.4,148.8Z"/><path class="cls-1" d="M121.5,107.4c3.5.6,8.1,1.6,9.3,1.2s1.9-2.6,1.9-2.6a217.6,217.6,0,0,0-28,0c-5.9.5-13.7,1.4-8.7,1.4S118,106.8,121.5,107.4Z"/><path class="cls-1" d="M94.9,74.1c-8.3.6-19.3,1.4-12.2,1.4s30.8-.5,35.7,0,11.4,1.6,13.1,1.2a5,5,0,0,0,2.6-2.6C123.6,73.5,103.2,73.5,94.9,74.1Z"/><path class="cls-1" d="M118.8,78.6c5.4.6,12.5,1.7,14.4,1.2s2.9-2.6,2.9-2.6c-11.6-.6-34.2-.6-43.3,0s-21.3,1.4-13.5,1.4S113.3,78.1,118.8,78.6Z"/><path class="cls-1" d="M4.8,98.3c8,0,35.2-.5,40.8,0s13,1.5,14.9,1.1A5.2,5.2,0,0,0,63.6,97c-12-.6-35.4-.6-44.9,0S-3.3,98.3,4.8,98.3Z"/><path class="cls-1" d="M44,113.4c5.6.6,13,1.5,14.9,1.1a5.2,5.2,0,0,0,3-2.4c-12-.5-35.4-.5-44.8,0s-22.1,1.3-14,1.3S38.4,112.9,44,113.4Z"/><path class="cls-1" d="M43.4,108.9c5.7.6,13.1,1.6,15,1.1a5.2,5.2,0,0,0,3-2.4c-12-.5-35.4-.5-44.9,0s-22,1.3-13.9,1.3S37.8,108.4,43.4,108.9Z"/><path class="cls-1" d="M44.2,119.6c5.2.5,12,1.5,13.8,1a4.9,4.9,0,0,0,2.8-2.4c-11.1-.5-32.8-.5-41.6,0s-20.4,1.4-12.9,1.4S39,119,44.2,119.6Z"/><path class="cls-1" d="M49.1,140c5.1.5,11.8,1.5,13.6,1.1a4.9,4.9,0,0,0,2.7-2.4c-10.8-.6-32.1-.6-40.7,0S4.7,140,12,140,44,139.5,49.1,140Z"/><path class="cls-1" d="M100.2,85.8c-7.2.6-16.7,1.4-10.6,1.4s26.7-.5,30.9,0,9.9,1.7,11.3,1.2,2.3-2.6,2.3-2.6A318.9,318.9,0,0,0,100.2,85.8Z"/><path class="cls-1" d="M93.4,119.7c-8.6.5-20,1.3-12.7,1.3s32-.5,37.1,0,11.8,1.5,13.6,1.1a4.9,4.9,0,0,0,2.7-2.4C123.2,119.1,102,119.1,93.4,119.7Z"/><path class="cls-1" d="M98.6,123.4c-7.2.6-16.7,1.5-10.5,1.5s26.6-.6,30.9,0,9.8,1.6,11.3,1.1,2.3-2.6,2.3-2.6C123.5,122.9,105.8,122.9,98.6,123.4Z"/><path class="cls-1" d="M98,45.7c-8,.7,8.8.9,15.1,1.8s13.3,1.2,15.3-.1a7.7,7.7,0,0,0,2.7-2.8h-6.3A239.6,239.6,0,0,0,98,45.7Z"/><path class="cls-1" d="M90.9,101.9c-10.7.6,11.9.8,20.2,1.7s17.8,1.3,20.5,0a8.3,8.3,0,0,0,3.5-2.9h-8.3C112.6,100.6,101.6,101.2,90.9,101.9Z"/><path class="cls-1" d="M140,55.7h-7.5c-12.7-.2-22.6.4-32.2,1.1s10.7.9,18.1,1.8,16,1.2,18.4-.1A8,8,0,0,0,140,55.7Z"/><path class="cls-1" d="M60.2,7.1a5.8,5.8,0,0,0,1.7-2.3h-4a130.3,130.3,0,0,0-17.5.8c-5.2.6,5.8.7,9.8,1.4S58.9,8.1,60.2,7.1Z"/><path class="cls-1" d="M66.6,50.1H59.2c-12.8-.2-22.7.3-32.3.8s10.7.7,18.1,1.4,16,1,18.4,0A7.9,7.9,0,0,0,66.6,50.1Z"/><path class="cls-1" d="M61.9,59.7c3.1-1,4.1-2.2,4.1-2.2H56.5c-16.4-.1-29,.4-41.3.9s13.7.7,23.2,1.4S58.8,60.8,61.9,59.7Z"/><path class="cls-1" d="M37.5,66.9c9.8.7,21.1,1,24.3-.1A9.5,9.5,0,0,0,66,64.5H56.1c-16.9-.2-29.9.3-42.6.9S27.6,66.2,37.5,66.9Z"/><path class="cls-1" d="M22.7,79.2c-9.6.7,10.6.9,18.1,1.8s15.9,1.2,18.3-.1a8,8,0,0,0,3.2-2.8H54.9C42.1,77.9,32.2,78.6,22.7,79.2Z"/><path class="cls-1" d="M24.8,92.8c-9.6.7,10.6.9,18.1,1.8s16,1.2,18.4-.1a7.2,7.2,0,0,0,3.1-2.8H57C44.2,91.5,34.4,92.2,24.8,92.8Z"/><path class="cls-1" d="M22.7,123.9c-9.6.6,10.6.9,18.1,1.7s15.9,1.3,18.3,0a8.6,8.6,0,0,0,3.2-2.9H54.9C42.1,122.6,32.2,123.2,22.7,123.9Z"/><path class="cls-1" d="M18.7,101.9c-9.6.6,10.6.8,18.1,1.7s16,1.3,18.4,0a7.7,7.7,0,0,0,3.1-2.9H50.9C38.1,100.6,28.3,101.2,18.7,101.9Z"/><path class="cls-1" d="M61.3,153a7.2,7.2,0,0,0,3.1-2.8H57c-12.8-.2-22.6.4-32.2,1.1s10.6.9,18.1,1.7S58.9,154.3,61.3,153Z"/><path class="cls-1" d="M86.4,114.3c-11.7.6,12.9.9,22,1.7s19.4,1.3,22.4,0a8.5,8.5,0,0,0,3.8-2.8h-9C110,113,98,113.6,86.4,114.3Z"/><path class="cls-1" d="M135.8,90.5c-2.5-1.4-11.6-1.4-19.5-.9s-29.3-.2-19.2.9,20.5,2.2,34,2.6l7.9.4A9.2,9.2,0,0,0,135.8,90.5Z"/><path class="cls-1" d="M127.3,128.2c-2.6-1.4-12.4-1.5-21-1s-31.7-.3-20.8.8,22.2,2.4,36.8,2.8l8.6.4A9.9,9.9,0,0,0,127.3,128.2Z"/><path class="cls-1" d="M68.3,170.9a7.5,7.5,0,0,0-3-2.7c-2.3-1.3-10.8-1.3-18.2-.9s-27.4-.2-17.9.8,19.1,2.1,31.8,2.4Z"/><path class="cls-1" d="M107.8,70.9c10.6.9,22.8,1.2,26.2-.1s-1.7-2.8-1.7-2.8h-4.4c-18.2-.2-32.3.5-45.9,1.1S97.1,70,107.8,70.9Z"/><path class="cls-1" d="M60.1,76.2c3.4-1.3-1.7-2.8-1.7-2.8H54c-18.2-.2-32.3.5-45.9,1.1s15.2.9,25.8,1.8S56.7,77.5,60.1,76.2Z"/><path class="cls-1" d="M61.9,47.4c3.5-1.3-1.6-2.8-1.6-2.8H55.9c-18.3-.3-32.3.4-46,1s15.2.9,25.8,1.8S58.5,48.7,61.9,47.4Z"/><path class="cls-1" d="M59.7,32.6c-17.1-.2-30.2.4-43,1.1s14.2.9,24.1,1.7,21.4,1.3,24.6,0-1.6-2.8-1.6-2.8Z"/><path class="cls-1" d="M65.3,27.7c3.4-1.3-1.7-2.8-1.7-2.8H59.2C41,24.7,27,25.3,13.3,26s15.2.9,25.8,1.8S61.9,29,65.3,27.7Z"/><path class="cls-1" d="M60.3,83.9H55.9c-18.3-.2-32.3.4-46,1.1s15.2.9,25.8,1.7,22.8,1.3,26.2,0S60.3,83.9,60.3,83.9Z"/><path class="cls-1" d="M114.3,62.2c5.6-.3,12.2,0,15.8,0s5.8-.2,3.2-.9a55.4,55.4,0,0,0-13.4-.9L97.1,62.2C92.1,62.5,99.2,62.9,114.3,62.2Z"/><path class="cls-1" d="M112.8,65.6c5.7-.3,12.2,0,15.8,0s5.9-.2,3.2-.9a54.9,54.9,0,0,0-13.3-.8L95.7,65.6C90.7,65.9,97.8,66.4,112.8,65.6Z"/><path class="cls-1" d="M109.2,133.2,86.4,135c-5,.3,2.1.7,17.1,0,5.7-.3,12.2,0,15.9,0s5.8-.2,3.2-.9A55.7,55.7,0,0,0,109.2,133.2Z"/><path class="cls-1" d="M41.4,146.4c6.4-.3,13.9,0,18,0s6.6-.2,3.6-.9a70.5,70.5,0,0,0-15.2-.9l-25.9,1.8C16.3,146.7,24.3,147.2,41.4,146.4Z"/><path class="cls-1" d="M45.5,114.7l-24.4,1.7c-5.3.3,2.3.8,18.4,0,6-.3,13,0,16.9,0s6.2-.1,3.4-.9A63.4,63.4,0,0,0,45.5,114.7Z"/><path class="cls-1" d="M60.8,172.3,43.4,174c-3.7.3,1.7.8,13,0,4.3-.3,9.3,0,12.1,0s4.4-.1,2.4-.8S63.7,172,60.8,172.3Z"/><path class="cls-1" d="M81.3,140.4c-4.9.3,2.2.8,17.2,0,5.6-.3,12.2,0,15.8,0s4,0,4.3-.3h1.1c1.4-.4,2.2-2.5,2.2-2.5a307.7,307.7,0,0,0-33.3,0c-7,.5-16.3,1.4-10.3,1.4s18.7-.4,26.2-.2h-.4Z"/><path class="cls-1" d="M107.7,142.9l-22.8,1.7c-5,.3,2.1.8,17.1,0,5.7-.3,12.2,0,15.9,0s5.8-.1,3.2-.9S111.6,142.6,107.7,142.9Z"/><path class="cls-1" d="M106.2,95.8c7.9-.3,17.1,0,22.2,0s8.1-.1,4.4-.9-13.2-1.1-18.7-.8L82.2,95.8C75.2,96.1,85.2,96.6,106.2,95.8Z"/><path class="cls-1" d="M117.1,97.4,81.4,99.2c-7.8.3,3.3.8,26.8,0,8.8-.3,19.1,0,24.8,0s9.1-.2,5-.9S123.2,97.2,117.1,97.4Z"/><path class="cls-1" d="M133.3,80.9c-2.6-.7-9.5-1.1-13.4-.9L97.1,81.8c-5,.3,2.1.8,17.2,0,5.6-.3,12.2,0,15.8,0S135.9,81.6,133.3,80.9Z"/></svg>