<svg xmlns="http://www.w3.org/2000/svg" viewBox="0 0 175 177.3"><defs><style>.a{fill:#1c2b39;}</style></defs><path class="a" d="M166.7,45.8c-4.9-9.1-16.4-21.2-23.6-26.3-5.2-3.7-9.5-6.3-11.4-7.4l1.2-6.5V4.9l-.4-.6c-.3-.4-2.7-3.4-5.6-3.4L111.3.6,87.5,0H58.4V1.6H87.5l39.5.9c2.2,0,4.3,2.8,4.3,2.8l-1.4,7.6s5.4,3,12.3,7.9,18.3,16.8,23,25.7,8.2,22,8.2,34.4a73.5,73.5,0,0,1-1.3,12c-1.7,9.5-5,18.8-7.2,23-6.2,11.6-12.4,20.6-19.2,27.1A88.8,88.8,0,0,1,121,159.6l-1.1,7.1a7.1,7.1,0,0,1-3.5,4.1,35,35,0,0,1-13.2,4.1c-4.4.5-11.6.8-15.7.8s-17.9-.8-23.7-2.9-8.4-4.7-9.8-6.7l-.3-3.9s2.6,1.6,10.6,3.6c4.8,1.2,15.1,2.2,24.2,2.2a52,52,0,0,0,15.2-2.1,134.8,134.8,0,0,1-15.2.8,156.6,156.6,0,0,1-19.4-1.5,55.4,55.4,0,0,1-15.5-5.4h0s-15.7-10.7-21.3-15.9S15.2,125.6,8.5,112.7C3.7,103.6,1.4,90.1,1.6,80S3.2,59.6,8.7,48.1c3.9-8,11.3-16.4,15.4-20.4A119.5,119.5,0,0,1,46.5,12.4l3.4.5c41.1,1.2,71.2-.7,71.2-.7H104c-6.2,0-53.8-.8-56.7-1.3h0L45.6,3.2a3.6,3.6,0,0,1,2.7-1.6H58.4V0H48.2a5.2,5.2,0,0,0-3.9,2.4l-.4.6.2.6L45.6,11A122.8,122.8,0,0,0,23,26.5C19.1,30.3,11.3,39,7.3,47.4,1.3,59.8.3,70.8,0,80s1.9,23.5,7.1,33.5c7.1,13.7,18.5,26.3,24.1,31.6S49,158.6,52,160.6l.4,5.6v.5l.3.4c1.5,2,4.2,5,10.6,7.2s20.7,3,24.2,3,11.6-.3,15.9-.8a36.7,36.7,0,0,0,13.8-4.3,9.5,9.5,0,0,0,4.3-5.1h0l.9-6.2a89.6,89.6,0,0,0,24.4-16.5c6.7-6.4,13.1-15.4,19.5-27.5,3.1-5.9,8.7-22.9,8.7-35.8S171.8,55.4,166.7,45.8Zm5.9,44.7c-.1.6-.3,1.2-.4,1.8Z"/></svg>