<svg xmlns="http://www.w3.org/2000/svg" viewBox="0 0 175 177.3"><defs><style>.a{fill:#231f20;}</style></defs><path class="a" d="M175,80.9c0,12.9-5.6,29.9-8.7,35.8-6.4,12.1-12.8,21.1-19.4,27.5a91.7,91.7,0,0,1-24.5,16.5l-.9,6.2h0a9.5,9.5,0,0,1-4.3,5.1,36.7,36.7,0,0,1-13.8,4.3c-4.3.5-11.4.8-15.9.8s-18-.7-24.2-3-9.1-5.2-10.6-7.2l-.3-.4v-.5l-.4-5.6c-3-2-15.8-10.8-20.8-15.6s-17-17.8-24.1-31.5C1.9,103.5-.2,89.5,0,80S1.3,59.8,7.3,47.4C11.3,39,19.1,30.3,23,26.5A122.8,122.8,0,0,1,45.6,11L44.1,3.6,43.9,3l.4-.6A5.2,5.2,0,0,1,48.2,0H87.5l23.8.5L127,.9c2.9,0,5.3,3,5.6,3.4l.4.6v.7l-1.2,6.5c1.9,1.1,6.2,3.7,11.4,7.4,7.2,5.1,18.7,17.2,23.6,26.3S175,68.8,175,80.9Z"/></svg>