<svg xmlns="http://www.w3.org/2000/svg" viewBox="0 0 133 126.3"><path d="M133,67.8c0-3.3-1.8-6.3-2-9.6a13.9,13.9,0,0,0-2.1-6.6c-1.2-1.7-2.4-3.1-2.5-5.3,0-.4.3-1.4-.5-2-2.7-2-3.7-5.3-5.8-7.8-.7-.7-1.8-1.1-2-2.3s-2.3-4.4-3.6-5.5c-3.8-3.2-7.1-7.2-11.5-9.8S94.7,11.2,89.5,8.3,78,.7,70.6.3,63.5-.4,58,1.4h-.3c-2.3.2-4,1.6-6,2.5s-4.6,4.3-7.4,5.9c-1,.6-1.5,3.1-1.2,4.8s1,.9,1.6.2a38.5,38.5,0,0,0,2.7-3,6,6,0,0,1,3.9-1.9c1.5-1.8,3.2-3.1,5.6-2.9-2.2.3-2.8,3.7-5.5,3-.6,2.6-3.2,4.4-3.3,7.4l1.4-.5c.3-.1.4-.1.5-.4,1.6-5.6,6.9-6.8,11.3-8.9,2.2-1.1,5.3-1.1,7.5-2.1s6.6-.8,9.6.2,5.5,2.9,8.7,3.1l.5.2c2.8,2,5.4,4.5,8.3,6.5a11.5,11.5,0,0,1,2.6,1.9c2.7,3.4,7.6,4.6,8.8,9.4,0,.1.3.1.4.2a13.1,13.1,0,0,1,5.6,6.1,63.8,63.8,0,0,0,4.3,7.1c1.6,2.4,3.7,4.7,4.5,7.3,1.3,4.4,4.4,8,5.3,12.4.3,1.7,1.9,4-.4,5.8,1.9,1.6,1.2,3.9,1.3,5.9.1,4.8-1.3,9.5-1.9,14.3a12.4,12.4,0,0,1-2,5.1c.3,1-.6,1.7-.7,2.5a1.8,1.8,0,0,1-1.4,1.8c-.9.2.3-1.4-.9-1.6a3.8,3.8,0,0,0-1.1,3.5c0,.6,1.7-1.1.9.8s-4.4,3.5-6,5.9c-.1.1-.6,0-1-.1s0-.6.1-.7,1.5-3.3,2.4-4.8,1.4-2.4.6-3.5-1.4,1.4-2.5.9c.6-3.8,2.3-7.4,2.2-11.9-1,2.1-2.3,3.6-2.4,5.1s-1.8,4.9-2.8,7.3c-2.3,5.1-6.2,9.2-9.6,13.5-.7.9,1,2.5-1.1,2.4a17,17,0,0,0-3.5.4c2.9-4.4,5.7-8.3,8-12.5s2.5-9.7,1.7-14.8c-.5,2-3,3.1-2,5.7.2.3-.5,1.8-.7,2.8a20.9,20.9,0,0,1-2.9,7.5c-1.4,2.3-2.7,4.7-4.2,7s-.1,2.6-1.7,2.2-.8-1.8-1.3-2.7.5-1,.7-1.6.9-1.6-.5-2-1.5-.5-1.4-1.4.8-1,1.5-1.1a.9.9,0,0,0,1.1-.9c.3-3.2,2.2-5.7,4.3-8a3.4,3.4,0,0,0,1.2-2.9,19,19,0,0,0-7,8.7c-.5,1.1-1.5,1-1.7.7s-1.6-3-.5-3.9,3.3-4.8,6-6.4c.9-.6,2.9-1.8,2.9-4C96.7,87,94.2,91,90.6,94.3a6.7,6.7,0,0,1,1.9-4.5,37.4,37.4,0,0,1,7-5.6c.6-.5,1.4-.9,1.5-1.7s.3.4.5.3c1.7-.7,3.7-1,5.3-2.6-2.7-.7-4.3.8-6.1,1.5h0c-3,1.5-6.1,3.2-8.2,5.7s-2.3,1.7-3.7.4l-.2,1.1c-1.7-.6-2.3-2.4-3.5-3.5s-.1-1.7.6-2.4a40.6,40.6,0,0,1,12.2-8.3c.6-.3.9-.1,1.1.3s-.2,1-.9,1.3a32.5,32.5,0,0,0-5.3,3.2,11.2,11.2,0,0,0-4.5,6.4h1c3.3-4.4,7.7-7.1,12.5-9.5a2.5,2.5,0,0,0,1.6-2.1c-1.9.8-3.5-.4-4.8-.4a13.1,13.1,0,0,0-7.4,2.3,27.2,27.2,0,0,0-7.4,7.7c.8-1.7,1-2.9-1.1-3-.4-.1-.5-.7-.2-1.2,1-2.1,2.2-4.5,4.4-5.2S92.3,71,96.3,71l-1.5-.9-.8-.3c-4.4,1.3-8.9,2.4-11.5,6.8-.5.8-.9,1.8-2,.9s-1.8-1.9-.8-2.8c3.5-3.3,6.8-6.9,11.8-8.3,1.9-.6,4.1-.6,6-1.8a4.1,4.1,0,0,0-3.3-1.1A24,24,0,0,0,80.7,71c-2.1,2.3-2.1,2.5-3.5-.5-.7-1.5-2.7-2.6-2.4-4.3s1.4-6.1,5-6.9c.8-.2,1-.7,1.4-1.1S81,57,80.4,57c-2.3.1-6.6,5.8-6.1,8.4-1.2-.5-2.3-.8-3-1.8,1.2-1.1,3.2-3.3,3.6-3.7s2.8-2.4,4.1-3.8c3.2-3.3,7.4-3.9,11.4-5a5.2,5.2,0,0,0,3.1-1.5c-8.4.4-14.8,3.3-19.2,9.3l-1.8,1.9a11.4,11.4,0,0,0-1.9,1.9c-2.9-2.4-4.3-6.1-8.8-6.4-.2,0-.4-.4-.5-.6-1.8-4.9-4.8-9.4-4.6-15a2.9,2.9,0,0,0-.8-2.2c-1.1-1.1-1.5-2.6-2.1-4.1s-.4-4-3-4.4c-.2,0-.6-.7-.6-1.1-.1-3.5-2.3-5.9-4.2-8.4-.4-.6-.8-2-2-1.1a2,2,0,0,0-.7,2.6c1.7,3.4,3,7.1,5.5,9.9s3.5,8,5.4,11.9.9,5.3,2.3,7.5,0,5.6,2.9,7.1v.3c-.4,2.1,1,3.4,2.1,4.9s3.9,2.6,5.4,4.4A16.5,16.5,0,0,0,71,71.3c2.2,1.2,4.4,3.4,4.7,5.7a22.6,22.6,0,0,0,7.1,12.6c2.7,2.4,3.8,5.3,5.2,8a20.9,20.9,0,0,1,1.3,11.9c-.2,1.2.5,3.2-1.3,3.4s-1.3-1.8-1.5-3-.4-1.2-1-1a1.7,1.7,0,0,0-.5,1.4c.3,1.1.1,2.4.7,3.6a2.4,2.4,0,0,1-1.5,3.4c-1.4.5-1.9-1.2-2.2-2.2-.7-3-2.7-5.7-2.3-9-2.2,4.1-1.5,7.7,1.2,11.2.4.5,1.4,1.2.7,1.7s-1.7,1.2-2.7.6a5.7,5.7,0,0,1-1.5-1.2c-3.5-3.6-3.2-8.2-3.4-12.7-3.1,1.5-1.9,4.4-1.9,6.9s2.3,5.1,3.7,7.9c-2-.3-4,1-5.1-.7a12.2,12.2,0,0,1-2.7-7.1c-.1-2.6,0-5.2,0-7.8a11.7,11.7,0,0,0-1.8,8.3,26.3,26.3,0,0,0,2.3,8.5c-3.4-1.4-4.8-3.5-4.9-6.7s-.4-4.9-.7-7.4a12.2,12.2,0,0,0,0,12.5c.3.6.7,1.2.1,1.6s-1.5-.3-1.7-.7a31.2,31.2,0,0,1-1.5-4.3,32.5,32.5,0,0,1-.9-10.3c.1-.7,1.6-1.6.3-2.1s-1.5,1-2,1.9a3.7,3.7,0,0,0-.2,2.1,58.2,58.2,0,0,0,1.3,9.2c.2,1.1,1.6,2.2.6,3.3s-1.6-.9-2.6-1-1.9.7-2.3-.9a15.8,15.8,0,0,1,.1-7.8c1.6-5.3,1.3-10.7,3-15.9-5.6,7.1-5.4,15.5-5.7,23.9-.8-1.3-3.2-.9-2.9-3.3.7-4.8.9-9.7,3-14.3A27.2,27.2,0,0,0,54,92.3a41.9,41.9,0,0,0-2.8,3.4,21.2,21.2,0,0,0-2.5,6.9c-.8,3.9-3.2,7.5-2.3,11.8.2.7.7,2-.5,2.4s-2-.6-2.6-1.3a2.8,2.8,0,0,1-.7-2.8,35.3,35.3,0,0,1,2.1-8.2,27.4,27.4,0,0,0,2.1-6.3c.5-2.1,2.3-3.8,1.8-6.7a51.1,51.1,0,0,0-8,23.4c-.9-.8-3.7-.1-2.2-2.8.4-.7-.1-1.1,0-1.5.6-3.9.1-7.9,1.3-11.8a38.9,38.9,0,0,1,2.8-7.6c.4-.7.9-2.4-.1-2.8s-1.5.8-2,1.9-1,3.4-1.6,5.1c-1.7,5.2-3.5,10.2-1.6,15.7.3,1-1.5,1.8-1.5,1.6-.4-1.9-2.2-.9-3.2-1.7-2.6-2.1-5.6-3.6-7.4-6.7-2.2.7-1.5-1.5-2.3-2.3s-3.8-3.2-3.5-7,2.7-9.9,3.3-15,3.2-8.8,4.8-13.4h-.9l-1.1.8c-3.9,3.8-4.7,9-5.9,13.9s-2.8,8.1-2.3,13.2c-1.2-2-1.1-2-1.2-2.9-.7-4.5,2.2-8.5,1.9-12.9-.1-2.1,1.7-3.6,1.7-5.5.2-3.8,3.1-6.3,4-9.6A29.1,29.1,0,0,1,26,59.1a17.6,17.6,0,0,0-7.1,8.5c-1,2.1-.7,5.1-3.2,6.3.7-.1,1,.4.8,1.6-.7,3.5-1.7,6.9-1.7,10.4a1.6,1.6,0,0,1-.5.9c-.4.2-.6-.1-.9-.4-2-1.8-.7-3.8-.1-5.7s1.9-4.2,1.5-6.5h0c1.1-3.5,2.6-6.9,3.8-10.4a20.3,20.3,0,0,1,3.6-6.8c.4-.5.8-1.1.1-1.6s-1.2,0-1.5.3A19.1,19.1,0,0,0,17.4,60c-2.8,6-5.1,12.1-5.6,18.9l-2-1.6c-1.2-.9-.7-2.5-1.4-3.6,3.2-1.8,2.9-5.4,4.4-8.1s3-7.4,5.5-10.6a24,24,0,0,1,1.8-2.6c.7-.8.9-1.9,1.7-2.7a3.1,3.1,0,0,0,.5-2.9A50.6,50.6,0,0,0,8.7,70.9c-1.1-2-2.5-3.6-1.7-5.8.8,0,1.1-.7,1.4-1.1,2.2-3.9,4-8,6.2-11.9A72.9,72.9,0,0,1,19.2,44c.6-.9,1.9-1.7,1.4-3.5-4.4,3.6-7.1,8.2-9.4,13s-3,6.8-4.4,10.2a5.7,5.7,0,0,1-.6-5.9c2-5.2,4.9-9.9,7.6-14.7,1.4-2.4,3.6-4.4,4.8-7.4-3.4.6-4.4,3.6-5.8,5.5s-3.2,4.3-3.7,7c-.2.9-.7.7-1.2.8.3,1.8-1.1,3-1.6,4.5.4-1.7-1.5-3.8,1.1-5.1s2-4.8,3.3-7.1a69.4,69.4,0,0,1,6.2-8.8c.4-.5,1-1.1.2-1.6s-.9.2-1.3.5c-3.9,2.7-4.8,7.4-7.7,10.8-.1.1.8.9-.3.8s-.8-.7-.7-.7,0-3.3,1.2-4.6,3.2-5.8,5.1-8.6a23.8,23.8,0,0,1,12.2-9,34,34,0,0,1,13.2-1.5c.8.1,1.8.6,2-.5s-1-1.9-1.6-1.9c-2.3.4-4.4-.5-6.6-.9s-3.3.2-5,.4c-3.9.6-7.4,2.3-10.8,4a17.1,17.1,0,0,0-5.9,5.2C8.7,28.1,7,31.5,4.6,34.6c-.8.9-2,2.8-1.7,4a3.5,3.5,0,0,1-.5,3.2c-.8,1.4-.6,2.9-1.2,4.2S2.5,50.6.1,52.2c-.3.3.3.4.3.6.3,2.5,1,4.9.8,7.5a16.3,16.3,0,0,0,.2,6.2c.8,2.8-.2,5.9,1.8,8.8.8,1.1,1,3.9,1.7,5.4a43.8,43.8,0,0,0,3.4,6.4c1,1.3,2.9,2.6,3.1,3.8s1.9,3.9,3.1,5.6,0,4.4,2.8,5c.9,4.1,4.9,5.6,7,8.7a16,16,0,0,0,5.2,3.6c2.5,1.2,5,2.4,7.3,3.8a51.4,51.4,0,0,0,9,4.7c4.3,1.5,8.6,3.3,13.2,3.1s6.3,1.6,9.7.7c1.8-.5,3.6-1,5.3-1.3s5-1.4,7.6-1.6,6.7-1.4,10.3-1.5a15.9,15.9,0,0,0,9.5-3c1.6-1.2,3.4-3.5,6.2-2.6,1-2.2,3.5-1.9,5.1-3.4s6.1-3.3,8.8-5.9a28,28,0,0,0,6.4-9.5c.8-1.7,2.2-3.2,2.5-4.9s1.2-3.3.8-5.1,1.3-2.8,1.2-3.9a56.5,56.5,0,0,1,.5-10.1C133.1,71.4,132.9,69.6,133,67.8Zm-22.4,38.6c-1.4,1.3-3.1,3-5.2,3.6s-1.3.5-1.6-.2.4-.7.9-1.1a29.2,29.2,0,0,0,8.5-9.3c.8-1.2.1-2.9,1.6-3.8h0c1.4.8.1,1.8,0,2.6A13.6,13.6,0,0,1,110.6,106.4Z"/><path d="M15.7,73.9a1.6,1.6,0,0,0-.9.3h0Z"/><path d="M27.5,104.7c.1.6,0,1.2.8,1.2s.9-.3.9-1,.4-2.6.4-4c.1-3,0-6,1-9.1a123.5,123.5,0,0,1,5.7-14.5c-1.6,1-2.8,1.4-3.3,2.1-3.2,5-4.6,10.8-6.5,16.3a10.3,10.3,0,0,0-.4,2.5C27.9,100.1,27.1,102.6,27.5,104.7Z"/><path d="M52.9,20.6a9.1,9.1,0,0,1,3.5-5.8c.4-.2.6-.8,1.1-.4s-.1.9-.3,1.3S55,19,54,20.8s-.6.4-1,.2,0,1.4.5,1.7.4-.5.6-.7c2.8-2.9,4.5-6.6,7.4-9.3,1.4-1.4,3.3-2.3,4.5-4.3-5,.4-8.5,3.1-11.9,5.9S51.7,19,52.9,20.6Z"/><path d="M36.6,87.2c-1.7,4.3-4.5,8.3-4.7,13.2,0,2.4-.3,5,.5,7.5.2.9.9,1.2,1.2,1s1.5-.9,1.1-1.6c-2.3-4.3.4-8.2.9-12.3C35.9,92.5,37.1,90,36.6,87.2Z"/><path d="M25.1,81.4c-1.7,5.1-3.4,10.1-3,15.6.1,1.2.2,1.2,1.4,1.6.1-8.3,4.1-15.7,5.5-23.9A14.7,14.7,0,0,0,25.1,81.4Z"/><path d="M121.7,92.7c1.5.9.6-2,2-1.9.3-1.8.5-3.6.9-5.3A53.9,53.9,0,0,0,125.8,69a6.3,6.3,0,0,0-1.5,3.9c-.8,5.5-1,11.2-2.3,16.6C121.8,90.6,120.5,92,121.7,92.7Z"/><path d="M61.2,50.1c.9-3.4,1.6-6.7,3.5-9.7s5.3-4.6,8.2-7C64.4,34.9,57.3,44.9,61.2,50.1Z"/><path d="M67.4,57c2.4-6.8,7.9-10.5,14-14.4C73.6,43.5,66.2,51.3,67.4,57Z"/><path d="M78.2,69.8C80,62.9,86.3,62,91.9,59.5,83.2,58.7,76.1,64.1,78.2,69.8Z"/><path d="M64.4,48.6c4.6-3.5,6.7-9.5,12.5-11.8C72.8,36.4,65.4,43.5,64.4,48.6Z"/><path d="M64.7,21.3c-3.7,3-5.5,7.2-6.9,11.6a3.8,3.8,0,0,0,.5,2.6c.6-1.6.6-3.6,1.3-4.9a30.1,30.1,0,0,1,5.8-8.4c.3-.4,1.8-.4.7-1.5S65,21,64.7,21.3Z"/><path d="M60.3,38c2.5-4.7,7.1-7.2,10.9-10.6C65.8,29.1,61.8,32.3,60.3,38Z"/><path d="M75.2,52.5c-.4.7-.8,1.3-.2,2s1.1-.1,1.5-.4a26.9,26.9,0,0,1,9.2-4.8c-2.3-.9-4.1.2-5.8.9S76.3,50.8,75.2,52.5Z"/><path d="M57.5,23.2Z"/><path d="M58.4,23a53.7,53.7,0,0,1,5-5.7c.4-.3,1.6-.5.8-1.5a1.5,1.5,0,0,0-2.4.3,17.6,17.6,0,0,1-2.9,3.7,3.3,3.3,0,0,0-1.4,3.4C57.9,23.5,58.1,23.4,58.4,23Z"/><path d="M119.9,82.9Z"/><path d="M118.8,89.5c.7.2.6-.6.6-.8a27.5,27.5,0,0,1,1.4-4.9c.2-.8-.4-.8-.9-.9-.6,1.9-1.2,3.7-1.7,5.5A.9.9,0,0,0,118.8,89.5Z"/><path d="M121.9,78.8c.2-.4-.3-.8-.7-.9s-.6.5-.7.8a8.8,8.8,0,0,0-.6,4.2C121.8,82.1,121.2,80.2,121.9,78.8Z"/><path d="M119.9,82.9Z"/><path d="M56,25.4c.5.6.3,2,1.9,1.8-.2-1.3-.3-2.7-.4-4C55.5,22.9,57.2,25.2,56,25.4Z"/></svg>