<svg xmlns="http://www.w3.org/2000/svg" viewBox="0 0 300.7 464.7"><path d="M153.8,273.9Z"/><path d="M38.8,283.2a31.7,31.7,0,0,0,8.4,7.4,92.4,92.4,0,0,0,18.2,8.8c6.2,2.3,12.5,4.4,19,6.2s13,3.4,19.7,4.7l5.1,1,1.4.2H112l2.5.3,10.2,1a308.7,308.7,0,0,0,42.1,1.3,161.8,161.8,0,0,0,21.7-2.4,101.2,101.2,0,0,0,10.9-2.5l5.4-1.7c1.8-.6,3.7-1.5,5.6-2.2l1.3-.6,1.3-.6,2.4-1.2,1.2-.6.7-.3c.5-.3.3-.2.5-.4l.3-.2,2.7-1.7a30.7,30.7,0,0,0,9.5-10.3c.6-1.1,1-2.5,1.5-3.7a18.7,18.7,0,0,0,.9-4.1,19.7,19.7,0,0,0,.2-4.2l-.2-2.1a11.7,11.7,0,0,0-.5-2,27.1,27.1,0,0,0-7.5-12.8,18.4,18.4,0,0,0-2.5-2.3l-1.4-1.2-1.2-.8-1.1-.8-.6-.4-.5-.3-.4-.2-2.8-1.6a58.3,58.3,0,0,0-11.5-4,77.9,77.9,0,0,0-11.5-1.7c-3.8-.4-7.5-.5-11.2-.6l-10.9-.2-5.3-.2-5.5-.3c-7.6-.2-14.8,0-22.1.1-14.4.3-28.7.5-42.3-1.5-3.4-.5-6.7-1.2-10-2a73.2,73.2,0,0,1-9.3-3.3,36.4,36.4,0,0,1-8.1-4.9l-.9-.8-.9-.8a12.1,12.1,0,0,1-1.6-1.6l-.6-.7-.8-.9-1.4-2.1a34.1,34.1,0,0,1-3.9-8.5,19.7,19.7,0,0,1-.2-8.7,22.4,22.4,0,0,1,3.4-8.2,47,47,0,0,1,6.1-7.4,85.9,85.9,0,0,1,15.9-11.5,160.5,160.5,0,0,1,17.6-8.8c6-2.5,12.1-4.7,18.1-6.7s12.1-3.5,18.2-5.1a153.6,153.6,0,0,0,18.2-5.8,57.6,57.6,0,0,0,16.8-10l.9-.8.9-.9,1.8-1.7,3.3-4.1,1.3-1.9.6-.9.3-.4v-.3l.3-.6a38.1,38.1,0,0,0,2.3-4.5,42.1,42.1,0,0,0,3.3-19.7,48.1,48.1,0,0,0-5-18.1,50.8,50.8,0,0,0-4.5-7.6c-.8-1.2-1.7-2.3-2.6-3.4s-1.9-2.1-2.8-3.1l-2.8-2.7-.3-.3h-.2l-.3-.3-.8-.7-1.5-1.2c-2-1.6-4-3.2-6.1-4.6-4-2.8-8-5.3-11.7-7.9-7.4-5-14.1-10.2-18.7-16.6a20.7,20.7,0,0,1-1.7-2.4l-1.4-2.5c-.5-.8-.8-1.7-1.2-2.5s-.7-1.6-1-2.6a27.6,27.6,0,0,0-.8-2.7l-.2-.6v-.6l-.3-1.3a30,30,0,0,1-.4-5.1,28.2,28.2,0,0,1,4.9-16.9A15.5,15.5,0,0,1,136.4.7a18.1,18.1,0,0,1,7.6.8l1.9.7.6.3-.6-.3a11.6,11.6,0,0,0-1.9-.9A18.1,18.1,0,0,0,136.3,0a15.9,15.9,0,0,0-11.2,6.3c-3.5,4.1-5.9,10.4-6.2,17.7a26.7,26.7,0,0,0,.3,5.6,7.7,7.7,0,0,0,.2,1.5v1h0v.4a26.8,26.8,0,0,1,.7,2.7,16.6,16.6,0,0,0,1,2.9c.4.9.7,2,1.2,2.9l1.4,2.8c.5.9,1.1,1.8,1.7,2.7a52.5,52.5,0,0,0,8.5,9.9A111.1,111.1,0,0,0,144.7,65L156,73.4c2,1.5,3.8,3,5.7,4.6l2.6,2.4,2.7,2.8c6.4,7.2,11.7,17.3,12.2,28.2a35.1,35.1,0,0,1-3.2,15.9c-.5,1.3-1.3,2.4-1.9,3.6l-.3.5v.2h-.1l-.7.9-1.3,1.9c-.4.6-.9,1-1.3,1.5l-1.3,1.5-1.6,1.4-.7.7-.8.6a51.5,51.5,0,0,1-14.9,8.3,130.4,130.4,0,0,1-17.4,5c-6.1,1.5-12.3,2.9-18.7,4.8s-12.6,4-18.9,6.5a152.5,152.5,0,0,0-18.8,8.9,92.3,92.3,0,0,0-18,12.7,54.1,54.1,0,0,0-7.8,9.2,33.2,33.2,0,0,0-5.2,12.3,31.5,31.5,0,0,0,.2,14,46.3,46.3,0,0,0,5.2,12.2l1.7,2.6,1,1.2,1.2,1.4c.7.9,1.5,1.6,2.2,2.4l1.2,1.1,1.2,1a50.9,50.9,0,0,0,10.3,6.5,67.9,67.9,0,0,0,10.9,3.9,110,110,0,0,0,11.1,2.4c14.8,2.2,29.5,2,44,1.8,7.2-.1,14.5-.3,21.4,0l5.4.3,5.6.2,10.9.3a106.2,106.2,0,0,1,20.7,1.9,43.4,43.4,0,0,1,9.2,3.2,28.8,28.8,0,0,1,7.6,5.4,14.5,14.5,0,0,1,4.3,6.9,9.1,9.1,0,0,1-.8,6.8,18.8,18.8,0,0,1-5.8,6.2l-2,1.3h-.4l-.5.3-1.2.6-2.4,1.3-1.2.6-1.2.4c-1.5.6-2.9,1.3-4.5,1.8l-4.9,1.6c-3.3.9-6.6,1.8-9.9,2.4a155.7,155.7,0,0,1-20.4,2.5,291.8,291.8,0,0,1-40.8-.6l-10.1-.9-2.5-.2h-1.1l-1.2-.2-4.8-.8q-9.7-1.8-19.2-4.2c-6.3-1.6-12.5-3.4-18.4-5.5a85.9,85.9,0,0,1-16.8-7.6,22.9,22.9,0,0,1-6.2-5.1,8.3,8.3,0,0,1-1.3-2.4,3.8,3.8,0,0,1,.3-2,11,11,0,0,1,2-2.7l1.4-1.3.8-.7.4-.3H49l1.9-1.2,1.4-.6,1.7-.6,1.8-.3a34,34,0,0,1,7.8.1,76,76,0,0,1,8,1.7,133.8,133.8,0,0,1,15.3,5.8c10,4.5,19.4,9.5,28.5,14,4.6,2.2,9.1,4.4,13.6,6.2l6.9,2.3a64.2,64.2,0,0,0,7,1.2,116.2,116.2,0,0,0,13,.8,69.6,69.6,0,0,0,12.2-.7,34.4,34.4,0,0,0,11-3.4,15.6,15.6,0,0,0,4.6-3.5,12.2,12.2,0,0,0,2.8-5.1,5.2,5.2,0,0,0,.2-1.4,3.8,3.8,0,0,0,.1-1.5,7,7,0,0,0-.4-2.9,9.3,9.3,0,0,0-2.9-4.2,15.5,15.5,0,0,0-3.7-2.4,21.4,21.4,0,0,0-3.8-1.3,36.4,36.4,0,0,0-12.7-1,20.6,20.6,0,0,0-7.5,2.1,4.9,4.9,0,0,0-2,1.9l.4-.5.6-.6,1.1-.6a17.8,17.8,0,0,1,7.5-1.6,35.6,35.6,0,0,1,12.2,1.7,15.4,15.4,0,0,1,3.5,1.5,14.1,14.1,0,0,1,3.3,2.3,8.5,8.5,0,0,1,2.1,3.4,5,5,0,0,1,.2,2.1c0,.4-.1.7-.1,1.1a.9.9,0,0,1-.1.5l-.2.6a11.2,11.2,0,0,1-6.3,6.7,33.1,33.1,0,0,1-10.3,2.5,97.3,97.3,0,0,1-24.3-1.3,44.2,44.2,0,0,1-6.3-1.4,54.1,54.1,0,0,1-6.3-2.4c-4.3-1.9-8.6-4.1-13.1-6.6-8.8-4.8-18.1-10.1-28.2-15.1a134.1,134.1,0,0,0-16-6.6,82.8,82.8,0,0,0-8.9-2.3,38,38,0,0,0-9.6-.4l-2.5.4-2.6.7-2.8,1.2-2,1.2-.5.3-.2.2-.5.3-1.1.9a11.2,11.2,0,0,0-2,1.8,15.6,15.6,0,0,0-3.7,5.1,12.4,12.4,0,0,0-1.2,7.7A16.3,16.3,0,0,0,38.8,283.2Z"/><path d="M298.9,311.4l-1.2-2.6-1.5-2.4a26.8,26.8,0,0,0-1.7-2.3l-.8-.9-.7-.9a24.2,24.2,0,0,0-4.3-3.7,30,30,0,0,0-4.6-2.6,32.7,32.7,0,0,0-9.2-2.6c-12.2-1.8-22.6,2.1-28.6,7.2a34,34,0,0,0-3.8,3.8l-1.3,1.8a2.2,2.2,0,0,1-.5.8,4.1,4.1,0,0,1-.5.9l-.4.9a90.7,90.7,0,0,0-2.4-10.6,86.3,86.3,0,0,1,2,11.5l-.2.3a1.5,1.5,0,0,0-.2.6l-.2.3a6.4,6.4,0,0,0,.9,5.9c0,2.3,0,4.6-.2,6.8a96.7,96.7,0,0,1-5.6,24.9,130.7,130.7,0,0,1-11.1,22.9c-2.2,3.6-4.5,7.1-7.1,10.6-1.2,1.7-2.5,3.4-3.8,5s-2.7,3.2-4,4.6a100.7,100.7,0,0,1-30.1,18.1,98.8,98.8,0,0,1-16.9,4.8,113.2,113.2,0,0,1-17.4,2.1h-8.8c-3-.1-5.9-.2-8.9-.5a145.4,145.4,0,0,1-17.4-2.3,118.7,118.7,0,0,1-16.8-4.5,112.3,112.3,0,0,1-15.9-6.9,103,103,0,0,1-14.3-9.3c-2.2-1.8-4.4-3.7-6.4-5.6s-3.9-3.8-6-6.1l-1.4-1.6-1.5-1.7-2.7-3.3c-1.8-2.3-3.6-4.6-5.3-7a109.5,109.5,0,0,1-8.9-14.6A83.7,83.7,0,0,1,22.9,338a55.6,55.6,0,0,1-2.1-15.5A40.3,40.3,0,0,1,24,308.2a50.3,50.3,0,0,1,3.1-5.6c4.4-4.3,13.8-3.9,18.7-1.1-5.3-12-14.6-10.7-18-13s0-14.1-13.4-16.7c2.4,7.8.6,14.2-2.5,20.7a55.2,55.2,0,0,0-8.1,30,71.5,71.5,0,0,0,3.7,20.3,97.5,97.5,0,0,0,8.3,17.9,134.6,134.6,0,0,0,10.8,15.9c2,2.5,4,4.9,6.1,7.3s2.1,2.3,3.2,3.5l1.6,1.7,1.7,1.7c2,2.1,4.6,4.5,7,6.6s5,4.1,7.6,5.9a111.3,111.3,0,0,0,16.6,9.8,127.9,127.9,0,0,0,17.8,6.8,132.7,132.7,0,0,0,18.5,4,146,146,0,0,0,18.7,1.7h9.3l4.6-.2,4.7-.4a128.9,128.9,0,0,0,18.6-3.1,102.9,102.9,0,0,0,17.7-6.1,106,106,0,0,0,30.9-20.7h.1c1.5-1.7,2.8-3.4,4.1-5.2s2.5-3.5,3.7-5.4a132.4,132.4,0,0,0,17-35.1,95.6,95.6,0,0,0,4.6-25.5c0-2,0-4-.1-6a5.4,5.4,0,0,0,1.8,1.1,6.1,6.1,0,0,0,7.8-3.6l.3-.6a1.9,1.9,0,0,1,.2-.7l.3-.6c0-.1.1-.2.1-.3l.3-.4a2.7,2.7,0,0,1,.6-1,17.4,17.4,0,0,1,1.9-2.2,21.4,21.4,0,0,1,7.6-4.4,29.1,29.1,0,0,1,12.1-1.4,23.1,23.1,0,0,1,6.7,1.5,16.3,16.3,0,0,1,5.8,3.6l.8.8c.3.3.6.5.7.8a8.7,8.7,0,0,1,1.2,1.4l1.1,1.5.9,1.7a25.3,25.3,0,0,1,1.2,3.6,16.4,16.4,0,0,1,.2,3.9c-.3,5.3-3.4,11-7.7,15.8a51,51,0,0,1-7.2,6.7l-4.1,2.9-2.1,1.3-2.4,1.3c-5.9,3.2-12.6,5.9-19,8.9s-12.6,6.6-17.7,11.4a16.2,16.2,0,0,0-1.8,1.9l-1.8,1.9c-.5.6-1,1.5-1.5,2.2l-1.2,2.3a42,42,0,0,0-2.8,9.4,40.1,40.1,0,0,0-.5,9.1,22,22,0,0,0,1.9,8.5c1.1,2.5,3.4,4.8,6.1,5.2a11.8,11.8,0,0,0,7.1-1,18.4,18.4,0,0,0,2.8-1.5,15.3,15.3,0,0,0,2.5-1.6,13.5,13.5,0,0,0,3.3-4.1,6.3,6.3,0,0,0,.4-4.2,5.8,5.8,0,0,0-1.5-2.7,8.4,8.4,0,0,0-2-1.5,10.5,10.5,0,0,1,1.9,1.6,4.9,4.9,0,0,1,1.3,2.7,5.3,5.3,0,0,1-.6,3.8,9.6,9.6,0,0,1-3.3,3.7l-1.1.8-1.3.7-2.8,1.3c-2,.6-4.2,1.2-6.4.6a6.6,6.6,0,0,1-2.8-1.6,10.2,10.2,0,0,1-1.9-3,21.6,21.6,0,0,1-1.3-7.8,42.7,42.7,0,0,1,1-8.5,38.4,38.4,0,0,1,3-8.4l1.2-2a15.5,15.5,0,0,1,1.3-1.7l1.6-1.6,1.8-1.6c4.8-4.2,10.8-7.1,17.2-9.8s13-4.9,19.8-8l2.4-1.2,2.5-1.3c1.6-.9,3.2-2,4.7-3a58.6,58.6,0,0,0,8.6-7.2,46.1,46.1,0,0,0,6.9-8.9,31.8,31.8,0,0,0,2.4-5.3,22.4,22.4,0,0,0,1.4-5.8A23.4,23.4,0,0,0,298.9,311.4Z"/><path d="M255.2,433.1l-5.8,1.5-7.2,1.7-8.4,1.9c-6.1,1.3-12.9,2.7-20.4,4.1s-15.5,2.7-24.1,3.9c-4.3.6-8.7,1.3-13.3,1.7s-9.1,1.2-13.8,1.5l-7.1.7-7.2.5-7.3.5-7.4.3-7.5.3h-30l-7.5-.4-7.4-.3-7.5-.6-7.5-.6h-.5l-.9-.2-1.7-.3-3.6-.5-6.9-1.4-6.7-1.7a87.4,87.4,0,0,1-23.6-10.3c-6.6-4.5-12-10.1-14.1-16.3a18.3,18.3,0,0,1,2.4-17,22.2,22.2,0,0,1,5.8-5.3l.8-.6.8-.4,1.6-.8,3.1-1.3a38.5,38.5,0,0,1,10-1.8h3.6l-3.6-.7a34.7,34.7,0,0,0-10.6.2l-3.6.8-1.9.6-1,.4-.9.4A24.3,24.3,0,0,0,6.5,399a23.3,23.3,0,0,0-5.6,9.6,25.1,25.1,0,0,0-.2,12.5,33.6,33.6,0,0,0,5.7,12.1,57.9,57.9,0,0,0,9.8,10,92.5,92.5,0,0,0,26,13.3l7.2,2.2,7.4,1.8,3.7.7,1.9.4,1,.2h1.3l7.5.8,7.5.7,7.7.5,7.8.4,7.8.2h7.8l7.7-.2,7.7-.2,7.7-.5,7.5-.5,7.5-.8c2.5-.2,5-.4,7.4-.8l7.3-1c4.8-.6,9.4-1.5,14-2.3s9.1-1.8,13.4-2.7c8.6-1.9,16.7-4,24.1-6.2s14.2-4.4,20-6.6c3-1,5.7-2.1,8.3-3.1l6.8-2.8,5.5-2.4,4-1.9,3.3-1.6-3.5.9Z"/></svg>