<svg xmlns="http://www.w3.org/2000/svg" viewBox="0 0 180 139.1"><defs><style>.a{fill:#050500;}</style></defs><path class="a" d="M59,96.2h0V83.4h0a2.7,2.7,0,1,0-5.3,0h0V96.2h0a2.7,2.7,0,0,0,5.3,0Z"/><path class="a" d="M78.2,83.4a2.7,2.7,0,1,0-5.3,0h0V96.2h0a2.7,2.7,0,0,0,5.3,0h0V83.4Z"/><path class="a" d="M36.8,98.7A2.7,2.7,0,0,0,39.5,96h0V83.3h0a2.7,2.7,0,1,0-5.3,0h0V96h0A2.7,2.7,0,0,0,36.8,98.7Z"/><path class="a" d="M149.6,22.8a3.1,3.1,0,1,0,3-3A3,3,0,0,0,149.6,22.8Z"/><path class="a" d="M129.9,22.8a3.1,3.1,0,1,0,3-3A3,3,0,0,0,129.9,22.8Z"/><path class="a" d="M110.2,22.8a3.1,3.1,0,1,0,3-3A3,3,0,0,0,110.2,22.8Z"/><path class="a" d="M85.9,44.3H77.7V25.5h0a2.7,2.7,0,1,0-5.4,0h0V44.3H59V25.5h0a2.7,2.7,0,1,0-5.3,0h0V44.3H40.4V25.5h0a2.7,2.7,0,0,0-2.7-2.7,2.6,2.6,0,0,0-2.6,2.7h0V44.3H21.7V25.5h0a2.7,2.7,0,1,0-5.3,0h0V44.3h-9a2.7,2.7,0,1,0,0,5.3h9V70.8H9.8a2.7,2.7,0,0,0,0,5.3H83.4a2.7,2.7,0,0,0,0-5.3H77.7V49.6h8.2a2.7,2.7,0,0,0,0-5.3ZM53.7,49.6V70.8H40.4V49.6Zm-32,0H35.1V70.8H21.7ZM72.3,70.8H59V49.6H72.3Z"/><path class="a" d="M11.8,98.9a3.1,3.1,0,0,0,1.3-.3c1.2-.8,7.3-4.9,8.6-15a2.6,2.6,0,0,0-2.3-3,2.7,2.7,0,0,0-3,2.3c-1,7.6-5.2,10.6-6,11.1a2.5,2.5,0,0,0-.9,3.6A2.5,2.5,0,0,0,11.8,98.9Z"/><path class="a" d="M7.3,21.2H8a21.2,21.2,0,0,0,8.4-4.8h67a2.7,2.7,0,0,0,0-5.3H21.2a20,20,0,0,0,3.4-8A2.7,2.7,0,0,0,22.5,0a2.7,2.7,0,0,0-3.1,2.2C18.4,7.7,12,14.7,6.7,15.9a2.8,2.8,0,0,0-2,3.3A2.7,2.7,0,0,0,7.3,21.2Z"/><path class="a" d="M96.7,98.8a2.8,2.8,0,0,0,1.8-.6h0c.3-.3,8.1-7.3,9.1-22.1h65v20h0a2.7,2.7,0,1,0,5.3,0h0V73.3h0a2.6,2.6,0,0,0-2.6-2.5h-4.6V51.9h0a2.6,2.6,0,0,0-2.6-2.6h-4.5V32.4h0a2.7,2.7,0,0,0-2.7-2.7H105a2.7,2.7,0,0,0-2.7,2.7h0V73.1h0c0,14.3-7.1,20.8-7.4,21.1H95a2.5,2.5,0,0,0-.9,2A2.6,2.6,0,0,0,96.7,98.8Zm10.9-28V54.6h57.8V70.8Zm0-21.5V35.1h50.6V49.3Z"/><path class="a" d="M99.7,16.5h59.5A14.8,14.8,0,0,0,173.3,7a2.7,2.7,0,0,0-1.6-3.4,2.8,2.8,0,0,0-3.5,1.6,9.4,9.4,0,0,1-9,5.9H99.7a2.7,2.7,0,0,0,0,5.4Z"/><path class="a" d="M141,94.3V94h0V83.4a2.7,2.7,0,1,0-5.3,0V94h0v.3a2.7,2.7,0,1,0,5.3,0Z"/><path class="a" d="M159.5,94.3a.4.4,0,0,0-.1-.3h.1V83.4a2.7,2.7,0,1,0-5.4,0h0V94h.1a.4.4,0,0,0-.1.3,2.7,2.7,0,1,0,5.4,0Z"/><path class="a" d="M122.5,83.4h0a2.7,2.7,0,1,0-5.3,0V94h0v.3a2.7,2.7,0,1,0,5.3,0V94h0Z"/><path class="a" d="M39.8,123.4h0a8.9,8.9,0,0,0-8.9-8.5,9.6,9.6,0,0,0-7,3.1,9.7,9.7,0,0,0-7-3.1,10.4,10.4,0,0,0-7.8,3.4c-1.9-1.9-4.5-3.8-6.9-3.8A2.2,2.2,0,0,0,0,116.8,2.2,2.2,0,0,0,2.2,119c2.1,0,5,3.2,5,4.8h0v12.7h0a2.2,2.2,0,0,0,4.4,0V123.8h0c0-3.3,3.2-4.5,5.3-4.5a4.9,4.9,0,0,1,4.9,4.2v.2h0v12.7h0a2.2,2.2,0,0,0,4.4,0h0V123.8h0v-.4h0c.2-3.2,3.2-4.1,4.7-4.1a4.5,4.5,0,0,1,4.5,4.4h0v12.8h0a2.2,2.2,0,1,0,4.4,0h0V123.7h0Z"/><path class="a" d="M140.9,106.4a2.7,2.7,0,0,0,0,5.3,2.7,2.7,0,1,0,0-5.3Z"/><path class="a" d="M140.9,115a2.2,2.2,0,0,0-2.2,2.2h0v19.1h0a2.2,2.2,0,1,0,4.4,0h0V117.3h0A2.2,2.2,0,0,0,140.9,115Z"/><path class="a" d="M75.5,117.4h0v-.2a2.2,2.2,0,0,0-2.2-2.2,2.2,2.2,0,0,0-2.2,2.2v.2h0v12.1h0c0,3.8-3.3,5.2-5.6,5.2a5.3,5.3,0,0,1-5.2-5.2h-.1V117.8a.6.6,0,0,0,.1-.4,2.2,2.2,0,0,0-2.2-2.2,2.2,2.2,0,0,0-2.2,2.2h-.1v12.2h0a9.9,9.9,0,0,0,9.7,9.5c4.9,0,10-3.4,10-9.6h0Z"/><path class="a" d="M177.8,127.8a2.2,2.2,0,0,0,2.2-2.2h0v-.3a12.1,12.1,0,0,0-11.9-10.3,11.9,11.9,0,1,0,10.2,18.2l.3-.6a1.9,1.9,0,0,0,.2-.8h0v-.3a2.3,2.3,0,0,0-2.2-1.8,2.4,2.4,0,0,0-1.9,1.1h0a7.5,7.5,0,0,1-13.9-2.9Zm-16.3-4.4a7.4,7.4,0,0,1,13.3,0Z"/><path class="a" d="M122.1,114.9a2.1,2.1,0,0,0-2,1.3h0L114.2,130l-5.9-13.8h0a2.2,2.2,0,0,0-2-1.4,2.3,2.3,0,0,0-2.1,1.4h0l-6,14.1-5.9-14.1h-.1a2.1,2.1,0,0,0-2-1.3,2.2,2.2,0,0,0-2.2,2.2,2.3,2.3,0,0,0,.3,1.1l7.9,18.6h0a2.2,2.2,0,0,0,4.1-.1l6-14.1,5.8,13.8a2.3,2.3,0,0,0,2.1,1.5,2.3,2.3,0,0,0,2.1-1.5l7.8-18.4h0a2.4,2.4,0,0,0,.2-.8A2.2,2.2,0,0,0,122.1,114.9Z"/></svg>