<svg id="Layer_1" data-name="Layer 1" xmlns="http://www.w3.org/2000/svg" viewBox="0 0 90.1 198.7"><defs><style>.cls-1{fill:#231f20;}</style></defs><path class="cls-1" d="M10.5,143c1.4.7,1.6-.2.6-1.6s-2.9-2.8-5.3-5.4-6.3-4.8-5.8-2.3S9,142.3,10.5,143Z"/><path class="cls-1" d="M17.3,78.7c1.5.7,1.7-.2.7-1.6s-3-2.8-5.4-5.4-6.2-4.8-5.7-2.3S15.9,78,17.3,78.7Z"/><path class="cls-1" d="M27.8,81.4c-1.5-1.6-6.3-4.9-5.7-2.3s8.9,8.6,10.4,9.3,1.7-.3.7-1.6S30.2,84,27.8,81.4Z"/><path class="cls-1" d="M2.9,116.4c.5,2.6,9,8.7,10.4,9.3s1.7-.2.7-1.5-3-2.9-5.4-5.5S2.4,113.9,2.9,116.4Z"/><path class="cls-1" d="M22.9,150.4c1.4.7,1.6-.2.6-1.5s-2.9-2.9-5.3-5.5-6.3-4.8-5.8-2.2S21.4,149.8,22.9,150.4Z"/><path class="cls-1" d="M20.5,65c1.1,1.8,5.1,6,5.1,3.4s-7-10.3-8.3-11.2-1.7-.1-1,1.4S18.6,61.9,20.5,65Z"/><path class="cls-1" d="M12.4,136.6c.9.2,1.3-.6.8-1.5s-1.6-1.8-2.8-3.5-3.5-2.9-3.7-.8S11.5,136.3,12.4,136.6Z"/><path class="cls-1" d="M27.7,54.5c-.9-.4-1.3.4-.9,1.4s1.5,1.8,2.6,3.6,3.4,3,3.6,1S28.6,54.8,27.7,54.5Z"/><path class="cls-1" d="M34.8,47.7c.4.9,1.5,1.9,2.6,3.7s3.4,3,3.7.9-4.5-5.7-5.4-6S34.4,46.8,34.8,47.7Z"/><path class="cls-1" d="M13.7,106.4c-.7-1-3.5-2.8-3.6-.8s4.7,5.5,5.6,5.8,1.3-.6.8-1.5S14.9,108.1,13.7,106.4Z"/><path class="cls-1" d="M24.2,113.9c1,.3,1.3-.5.8-1.5s-1.5-1.8-2.7-3.5-3.6-2.8-3.7-.7S23.3,113.6,24.2,113.9Z"/><path class="cls-1" d="M64.3,136.4c-2.9-.8-7.5-1.2-13.9-2.6-3.8-.8-14.5-1.5-11.1.7s22.6,3.8,25.5,3.7S67.2,137.2,64.3,136.4Z"/><path class="cls-1" d="M27.1,126.3c-1.5-1.9-4.3-4.1-7.9-7.8-2.1-2.3-8.9-7.3-7.8-4.1S24.5,126.9,26.5,128,28.6,128.1,27.1,126.3Z"/><path class="cls-1" d="M28.4,105.8c.8.2,1.2-.6.9-1.4s-1.2-1.6-2.1-3.2-2.8-2.5-3.2-.5S27.6,105.7,28.4,105.8Z"/><path class="cls-1" d="M38,87.4c.8.2,1.2-.6.9-1.5s-1.2-1.6-2.1-3.1-2.8-2.5-3.2-.5S37.2,87.2,38,87.4Z"/><path class="cls-1" d="M40.5,67.4c.8.2,1.2-.6.9-1.5s-1.2-1.6-2-3.1-2.9-2.5-3.3-.5S39.7,67.2,40.5,67.4Z"/><path class="cls-1" d="M53.4,141.9c2.4-1.3-3.7-2.6-6-2.6s-6.5-.5-8.2-.4-2.3.9-.7,1.5S51.1,143.1,53.4,141.9Z"/><path class="cls-1" d="M64.1,131c-3.8-.1-6.5-.5-8.2-.4s-2.3.8-.7,1.5,12.6,2.7,14.9,1.5S66.4,131,64.1,131Z"/><path class="cls-1" d="M21.7,156.2c-1.4-1.3-3.8-2.8-6.9-5.4s-7.7-4.9-6.6-2.4,11.5,8.5,13.2,9.2S23.1,157.5,21.7,156.2Z"/><path class="cls-1" d="M15,148.4c-1.3-1.3-3.7-2.8-6.9-5.4s-7.7-4.9-6.5-2.5,11.5,8.6,13.1,9.3S16.4,149.7,15,148.4Z"/><path class="cls-1" d="M35.7,100.7c-1.2-1.5-3.3-3.3-6.1-6.3s-7-5.9-6.1-3.3,10.1,10,11.7,11S36.9,102.2,35.7,100.7Z"/><path class="cls-1" d="M17,87.2c1.5,1,1.7.2.5-1.3s-3.4-3.3-6.2-6.3-6.9-5.9-6.1-3.4S15.4,86.3,17,87.2Z"/><path class="cls-1" d="M48.5,165.1c1.8-.2,1.4-.9-.4-1.4s-4.6-.8-8.6-1.7c-2.4-.6-9.1-.9-7,.7S46.7,165.2,48.5,165.1Z"/><path class="cls-1" d="M73.2,115.8c-1.8-.5-4.7-.8-8.7-1.7-2.4-.5-9-.9-6.9.8s14.1,2.5,15.9,2.3S75,116.4,73.2,115.8Z"/><path class="cls-1" d="M88.5,57.2c-1.8-.5-4.6-.8-8.6-1.7-2.4-.5-9.1-.9-7,.8s14.1,2.5,16,2.3S90.3,57.8,88.5,57.2Z"/><path class="cls-1" d="M8.8,116.4c1,.5,1.3-.2.7-1.2S7.5,113,6,111s-4.2-3.7-4-1.7S7.8,115.9,8.8,116.4Z"/><path class="cls-1" d="M53,159.5c-1.8-.6-4.6-.8-8.6-1.7-2.4-.6-9.1-.9-6.9.7s14.1,2.5,15.9,2.4S54.8,160,53,159.5Z"/><path class="cls-1" d="M21.2,195.4a10.8,10.8,0,0,0-1.1-2.1c-.9-.9-2-1-2,.1s1.8,3.4,2,4.2,1.6,1.8,2.4.5S21.8,196.8,21.2,195.4Z"/><path class="cls-1" d="M50.2,150.7c-.9-.2-4.1-1.4-6.3-1.8-3.8-.7-6.8-.4-5.2.7,3.5,2.3,10.5,2.9,12.2,3.6s7.2,1.4,7.2,0S54.1,152,50.2,150.7Z"/><path class="cls-1" d="M17.4,173.8c.5,1,2.4,2.2,3.1,1.1s-1.2-1.6-2.3-3.1a8.3,8.3,0,0,0-1.8-2.4c-1.3-1.1-2.6-1.4-2.4-.3S17,173,17.4,173.8Z"/><path class="cls-1" d="M18,180.4c.5.9,2.4,2.2,3,1.1s-1.1-1.6-2.2-3.1A14.9,14.9,0,0,0,17,176c-1.3-1.2-2.7-1.4-2.5-.3S17.6,179.6,18,180.4Z"/><path class="cls-1" d="M20,168.1c.5-1.2-1.9-1.6-3.7-3.2a20.9,20.9,0,0,0-2.9-2.5c-1.9-1.3-3.6-1.7-3-.6s4.9,4,5.6,4.8S19.6,169.1,20,168.1Z"/><path class="cls-1" d="M47.1,36.9c.9,1,3.5,2.4,3.9,1.5s-1.8-1.6-3.6-3.2a29.2,29.2,0,0,0-2.9-2.5c-1.9-1.3-3.6-1.7-3-.7S46.3,36.1,47.1,36.9Z"/><path class="cls-1" d="M17.4,124.4c-.8,1,1.2,1.8,2.4,3.7s1.2,2,1.9,2.9,2.8,2.2,2.6,1.2-3.3-4.8-3.7-5.7S18,123.6,17.4,124.4Z"/><path class="cls-1" d="M12.3,95.1c1.3,1.6,2.9,2.2,2.9.9,0-2.9-2.8-5.3-3.1-6.3s-2.4-3.2-3.4-1.9,1,2.1,2,4.1A13.5,13.5,0,0,0,12.3,95.1Z"/><path class="cls-1" d="M17,90.1c-1.3,1.6,1,2.1,2,4.1a16.1,16.1,0,0,0,1.6,3.3c1.3,1.6,2.9,2.1,2.9.8,0-2.9-2.8-5.3-3.1-6.3S18,88.8,17,90.1Z"/><path class="cls-1" d="M7.7,95.9c.6,2.6,3.8,4.5,4.3,5.4s3,2.6,3.7,1.3-1.4-1.8-2.8-3.6a15.8,15.8,0,0,0-2.3-2.8C9,94.9,7.4,94.6,7.7,95.9Z"/><path class="cls-1" d="M22.3,103.8a18.5,18.5,0,0,0-2.2-2.8c-1.6-1.3-3.3-1.6-3-.3s3.8,4.5,4.4,5.5,2.9,2.5,3.6,1.2S23.7,105.6,22.3,103.8Z"/><path class="cls-1" d="M27.9,74.4A9.6,9.6,0,0,0,29.5,77c1.2,1.1,2.6,1,2.5-.3s-2.7-4.1-3-5-2.2-2.2-3-.7S26.9,72.7,27.9,74.4Z"/><path class="cls-1" d="M17.1,69.6c.6,1,2.6,1.8,3.2.1s-1.3-1.5-2.5-3a16.3,16.3,0,0,0-1.9-2.3c-1.4-.9-2.8-.6-2.6.7S16.7,68.7,17.1,69.6Z"/><path class="cls-1" d="M10.4,125.4c-1.7-1.2-3.2-1.7-2.8-.6s4.2,4,4.8,4.8,3,2.4,3.5,1.5-1.6-1.6-3.1-3.2A25.1,25.1,0,0,0,10.4,125.4Z"/><path class="cls-1" d="M44.4,39.6c.8,1,3.1,2.4,3.6,1.5s-1.6-1.6-3.1-3.2a25.1,25.1,0,0,0-2.4-2.5c-1.7-1.2-3.2-1.7-2.8-.6S43.8,38.8,44.4,39.6Z"/><path class="cls-1" d="M44.1,48.4c-1.7-1.2-3.2-1.7-2.8-.7s4.1,4.1,4.7,4.9,3.1,2.4,3.5,1.5-1.5-1.6-3-3.2A17.5,17.5,0,0,0,44.1,48.4Z"/><path class="cls-1" d="M29.1,45.9c.8,1,3.1,2.4,3.6,1.5s-1.6-1.6-3.1-3.2a25.1,25.1,0,0,0-2.4-2.5c-1.7-1.2-3.2-1.6-2.8-.6S28.5,45.1,29.1,45.9Z"/><path class="cls-1" d="M80.5,88a27,27,0,0,0-4.4-1.3c-2.7-.5-4.8-.3-3.6.5s7.3,2.1,8.5,2.6,5.1,1,5.1,0S83.3,88.9,80.5,88Z"/><path class="cls-1" d="M85.5,61a37.4,37.4,0,0,0-4.1-.3c-2.6-.1-4.7-1.6-5.2-.3s2.7,1.9,4.2,1.8,5.4,1.3,8,.6S87.9,61.5,85.5,61Z"/><path class="cls-1" d="M67.2,94.8a11,11,0,0,0-2.7-.6c-1.7-.1-2.8.5-2.1,1s4.6,1,5.4,1.3,3.1.1,2.9-.9S69,95.2,67.2,94.8Z"/><path class="cls-1" d="M83.7,78.9c1.1.3,3.2-.3,2.6-1.8s-1.9-.2-3.7-.5a8.4,8.4,0,0,0-3-.4c-1.6.2-2.6,1.2-1.6,1.9S82.9,78.6,83.7,78.9Z"/><path class="cls-1" d="M6.2,108.2c1.2,1.7,2.5,2.7,2.4,1.6s-2.5-5.4-2.9-6.4-2.1-3.4-2.8-2.6.9,2.1,1.8,4.1A17.4,17.4,0,0,0,6.2,108.2Z"/><path class="cls-1" d="M51.7,30.6a9.5,9.5,0,0,0,1.7,2.3c1.3,1,2.6,1,2.4-.2s-2.9-3.7-3.3-4.4-2.3-2-2.9-.7S50.6,29.1,51.7,30.6Z"/><path class="cls-1" d="M31.1,40.8a9.5,9.5,0,0,0,1.7,2.3c1.3,1,2.6,1,2.4-.1s-2.9-3.7-3.3-4.5-2.3-2-2.9-.7S30,39.3,31.1,40.8Z"/><path class="cls-1" d="M73.2,111.9c0-1-1.8-.6-3.6-1.2a17.3,17.3,0,0,0-2.8-1c-1.8-.3-3.1-.1-2.4.4s4.7,1.6,5.5,1.9S73.2,112.7,73.2,111.9Z"/><path class="cls-1" d="M54.6,147.1c-.7-.2-3.2-1-4.8-1.3s-5.3-.2-4,.5,8.1,2.1,9.4,2.6,5.6,1,5.5-.1S57.6,148,54.6,147.1Z"/><path class="cls-1" d="M62.9,103.7c-1.4-.3-6.7-1.4-10.2-1.9s-5.6-.5-7.3-.5c.3-1.1.6-2.1.8-3.2,4.5,1.2,10.7,1.8,12.4,2.3s8.7,1.3,8.6.2-4.8-1-9.6-2A57.4,57.4,0,0,0,50.1,97l-3.5-.3c.2-1,.5-1.9.7-2.9,1.7.9,4.2.7,4.9,1s3.1.1,3-.9-1.8-.4-3.5-.8a13.3,13.3,0,0,0-2.8-.6H47.7c.2-1.1.5-2.1.7-3,5.3,1.2,13.9,1.5,16.2,1.9s10.2.9,10-.1-5.7-.8-11.3-1.6c-1.2-.2-5.9-.9-8.9-1.2s-4.2-.2-5.7-.1c.3-1,.5-2,.8-2.9,3.9,1.3,14,2.6,17.9,2s3.8-1.5.4-2.5-4.5-.6-8-1a64.6,64.6,0,0,0-9.8-.3c.4-1.7.8-3.2,1.2-4.6,2.8,1,6.4,1.3,7.5,1.7s5.7,1,5.6-.1-3.1-.8-6.2-1.7a34.7,34.7,0,0,0-5-1.3l-1.4-.2.7-2.5.3-.8c4.4,1.6,11.1,2.2,12.9,2.8s8.7,1.4,8.6,0-4.8-1.1-9.6-2.3c-1-.2-4.9-1.4-7.5-1.8l-3.9-.3.9-3c5.3,2,21.8,3.4,24.4,3.3s2.4-1.1-.5-1.8-7.5-1.3-13.9-2.6a53.7,53.7,0,0,0-9.3-.8c.4-1.3.9-2.7,1.4-4.1a7.9,7.9,0,0,0,4.7.5c1.6-.5,1.5-1.2.5-1.8s-1.3-.3-2.4-.5H56.9l1.1-3c3,1.5,8.6,1.7,10,2.1s6.1.7,6-.3-3.4-.7-6.7-1.5c-.7-.1-3.5-.9-5.3-1.1a22.5,22.5,0,0,0-3.7,0c.4-1,.7-1.9,1.1-2.8a53.4,53.4,0,0,0,10.3,1c1.5-.1,1.2-.9-.3-1.4s-3.9-.7-7.3-1.6l-1.9-.3,1.7-4.2c.8,1.3,7.2,2.9,9.6,2.6s2.2-1,.5-1.8-2.2-.6-4-1-4.9-.8-5.9-.4l1.1-2.7.6-1.3c3.8.9,8.4,1.4,9.8,1.8s7.9,1.2,7.8.1-4.4-1-8.7-1.9c-1-.2-4.6-1.2-6.9-1.5l-1.3-.2c.4-1,.8-2.2,1.3-3.4.6,1.1,4.3,1.9,5.8,1.4s1.5-1.2.5-1.8-1.3-.3-2.4-.5a7.3,7.3,0,0,0-3.6.1l1.5-3.7a7.8,7.8,0,0,0,5.1.8c1.5-.6,1.5-1.3.5-1.8s-1.4-.4-2.5-.6H68.3c3.1-8,6.4-17.1,7.8-22.7a10.6,10.6,0,0,0-1.7-8.5S66.7-1.5,67.2.9c1,4.9-1.6,12-3,17.5-.7,2.6-2,6.6-3.4,10.6a6.7,6.7,0,0,1-1.4-.9,20.1,20.1,0,0,0-2.9-2.5c-1.9-1.3-3.7-1.7-3.1-.7s4.9,4.1,5.7,4.9a3.5,3.5,0,0,0,1.1.9c-1,2.5-1.9,5-2.9,7.2l-1.6-1.7c-.9-1.5-4.3-4.1-5.1-2.8s2.2,2.7,4.3,5.3l1.3,1.8a6.9,6.9,0,0,1-.5,1.3l-1.3,2.9c-1.4-1.2-3.8-2.9-3.9-1.9s1.6,2.6,3.1,4c-.3.9-.7,1.9-1,3A9.2,9.2,0,0,0,50.1,48c-.9-.3-1.3.5-.9,1.4s1.4,1.8,2.4,3.3c-.7,1.9-1.3,3.9-1.9,5.9l-.9-.8c-1.6-1.5-5-4.2-5-2.9s3,4.2,5.2,5.9l-.9,2.7c-1.6-1.5-3.6-3.3-6-5.8s-8.7-7.3-7.4-4.4,8.9,8.9,12.8,11.9c-.5,1.7-1,3.2-1.4,4.4s-.8,2.5-1.2,3.9a8.8,8.8,0,0,0-1.8-2.1c-1.3-.9-2.7-.6-2.5.7s2.6,3.4,3.5,4.1l-1.2,4-3.3-2.6c-1.9-1.5-7.7-4.9-6.5-2.5s5.6,4.9,9.3,7.1l-2.7,9.5c-1.4-1.2-3.7-2.8-3.8-1.8s1.6,2.7,3.2,4.1c-.2.9-.5,1.8-.7,2.7a15,15,0,0,0-2.1-2.6c-1.6-1.3-3.2-1.6-3-.3s3.9,4.5,4.4,5.5-1,3.7-1.5,6l-.8-.6a17.5,17.5,0,0,0-2.4-2.5c-1.7-1.2-3.2-1.7-2.8-.7s4.1,4.1,4.8,4.9a2.3,2.3,0,0,0,.7.7c-.5,2.2-1,4.6-1.5,7a7.6,7.6,0,0,1-2-1.7,20.8,20.8,0,0,0-2.3-2.7c-1.6-1.4-3.2-1.6-2.9-.4.6,2.7,3.8,4.6,4.4,5.5a3.7,3.7,0,0,0,2.3,1.7c-.4,2.2-.9,4.3-1.3,6.5-.7-.9-1.7-1.9-2.8-3.4s-4.2-3.7-4.1-1.7,5.2,6.2,6.6,7c-.4,1.9-.7,3.6-1,5.3-.8-.3-1.6-.3-1.8.8s.5,1.7,1.3,2.7l-.3,2.4a5.9,5.9,0,0,1-1.1-.9c-.7-.9-3-2.4-3.5-1.5s1.6,1.6,3.1,3.2l1.2,1.4a24.6,24.6,0,0,0-.2,2.6,55.5,55.5,0,0,0-5-4.2c-3.2-2.6-4.8-6.3-6.4-5.3s2.1,4.8,3.9,6.1,4.1,4.3,7.2,6.6c-.1.8-.3,1.7-.4,2.6-1.6-1.4-4.1-3.1-4.7-3.6-3.3-2.5-5-6.1-6.6-5s2.2,4.7,4.1,5.9,3.8,3.6,6.7,5.8c-.1,1-.3,2-.5,3.1-1.2-.9-2.9-1.8-3.2-.9s1.3,2.6,2.8,3.6a5,5,0,0,0-.2,1.2c-.5-.7-1.9-1.2-3-2.4s-1.6-1.8-2.5-2.5-3.2-1.6-2.7-.6,4.1,4,4.7,4.8,2.6,2.1,3.3,1.7l-.3,1.9c-1.1-.7-2.4-1.2-2.7-.4s1,2.1,2.2,3.1-.3,2.3-.5,3.5a40.2,40.2,0,0,1-4.1-3.1c-2-1.5-7.8-4.7-6.6-2.3s6.6,5.4,10.3,7.5c-.1,1.2-.3,2.4-.5,3.5-.9-1.1-2.2-2.3-2.6-1.5s1,3.1,2.2,4.4-.3,2.8-.4,4l-.3-.3c-.8-.8-3.4-2.2-3.3-.4s1.9,2.5,3.4,3.4c-.1,2.7.2,4.4.9,4.6s.8-1.2,1.5-3.5c.6,0,.7-.5.4-1.1.7-2.5,1.6-5.8,2.5-9.6,3.5,2.1,10.1,2.8,11.8,3.4s7.2,1.4,7.2,0-4-1.2-7.9-2.5c-.9-.2-4.1-1.4-6.3-1.8a15.7,15.7,0,0,0-4.5-.4c.1-.2.1-.4.2-.6h0c.2-1.1.5-2.2.8-3.3,2.4,1.5,7,2,8.2,2.5s5.1,1,5.1-.1-2.8-.9-5.6-1.7a39.2,39.2,0,0,0-4.4-1.4,12.1,12.1,0,0,0-3.1-.2c.8-3.7,1.7-7.7,2.7-11.9,2.2,1.7,14.1,2.5,15.9,2.4s1.4-.9-.4-1.4-4.6-.8-8.6-1.7a19,19,0,0,0-6.7-.3c1.6-7.3,3.2-15,4.6-22.3a.4.4,0,0,0,.1-.3c3.7.8,11.3,2.1,13.2,1s-3.7-2.5-6-2.6-5.1-.3-6.8-.3l1-4.4.3.4c2.2,1.6,14.2,2.5,16,2.4s1.4-.9-.4-1.4-4.6-.8-8.6-1.7c-1.9-.5-6.3-.8-7.2-.1l.9-3.7c6.3,1.6,19,3.2,24,2.9s5.3-1.3.4-2.5-6.4-.9-11.3-1.5-8.8-.9-12.6-1c.3-1.4.7-2.8,1-4.3,2.4.8,5.2,1.1,6.1,1.5s5.1,1,5.1-.1-2.9-.8-5.6-1.7a39.2,39.2,0,0,0-4.4-1.4h-.7c.3-1.2.6-2.6,1-3.9l.2.3c2.1,1.6,14.1,2.5,16,2.4s1.4-.9-.4-1.4-4.7-.9-8.6-1.7c-1.8-.4-5.9-.8-7.1-.2l1.2-4.6c5.9,1.8,16.5,2.7,19.2,3.3s11.7,1.6,11.5.5S69.4,104.8,62.9,103.7Z"/><path class="cls-1" d="M30.9,191.1a7,7,0,0,0-2.5-.5c-1.4-.2-4.3-.3-4,.8s4.4,2.1,5.9,1.6S31.9,191.7,30.9,191.1Z"/><path class="cls-1" d="M32.2,186.5c-.9-.6-1.3-.4-2.4-.5s-4.3-.4-4,.8,4.3,2,5.9,1.5S33.2,187.1,32.2,186.5Z"/><path class="cls-1" d="M37.8,183c-1-.6-1.4-.3-2.4-.5s-4.3-.3-4,.8,4.3,2.1,5.9,1.6S38.8,183.6,37.8,183Z"/><path class="cls-1" d="M14.1,158.2c1.6.4,1.9-.1,1.4-1.2s-.9-1.1-1.7-1.8-3.3-2.8-3.7-1.7S12.4,157.7,14.1,158.2Z"/><path class="cls-1" d="M19.8,82.2c-.1,1.1,3.5,4.7,5.3,5.4s1.9.1,1.1-1.1S25,85.3,24,84.4,19.9,81.1,19.8,82.2Z"/><path class="cls-1" d="M33.2,53.1c-.8-1.2-1.3-1.3-2.3-2.2s-4.1-3.3-4.2-2.2,3.5,4.8,5.3,5.4S33.9,54.2,33.2,53.1Z"/><path class="cls-1" d="M41.9,45.6c1.7.7,1.9.1,1.2-1s-1.3-1.3-2.3-2.2-4.1-3.3-4.2-2.2S40.1,45,41.9,45.6Z"/><path class="cls-1" d="M25.4,60.5c2.1,1,2.2.4,1.2-1.1s-1.5-1.5-2.7-2.6-4.9-4.2-4.9-3S23.4,59.6,25.4,60.5Z"/><path class="cls-1" d="M7.2,128.7c1.7.3,1.9-.3,1.4-1.3s-1-1-1.8-1.7-3.6-2.5-3.9-1.3S5.6,128.4,7.2,128.7Z"/><path class="cls-1" d="M24.6,75.8c-.5-1-1-1-1.8-1.7s-3.5-2.5-3.8-1.4,2.6,4,4.2,4.4S25.2,76.8,24.6,75.8Z"/><path class="cls-1" d="M22.7,185.6c-.8-1.2-2.6-3.4-2.9-2.5s1.8,4.3,3.1,5.2,1.5.4,1.1-.6A7.4,7.4,0,0,0,22.7,185.6Z"/><path class="cls-1" d="M34.3,66.8c-.3.9,1.9,4.4,3.1,5.3s1.5.4,1.1-.7-.7-1.2-1.3-2.1S34.6,66,34.3,66.8Z"/><path class="cls-1" d="M29,63.4c-1.4-.6-1.6-.1-1,.8s.9,1.1,1.6,1.9,3.2,2.9,3.3,2S30.3,64.1,29,63.4Z"/><path class="cls-1" d="M20.3,190.4c1.3.9,1.5.5,1.2-.6s-.8-1.2-1.4-2.1-2.6-3.4-2.8-2.5S19.1,189.6,20.3,190.4Z"/><path class="cls-1" d="M35.5,178.5c1.5-.6,1.5-1.2.5-1.8s-1.4-.4-2.4-.6-4.3-.3-4,.9S33.9,179,35.5,178.5Z"/><path class="cls-1" d="M73.7,39.8c.3,1.1,4.3,2,5.9,1.5s1.5-1.2.5-1.8-1.3-.4-2.4-.6S73.4,38.6,73.7,39.8Z"/><path class="cls-1" d="M88,71.8c-.9-.6-1.3-.4-2.4-.6s-4.3-.3-4,.9,4.3,2,5.9,1.5S89,72.4,88,71.8Z"/><path class="cls-1" d="M68,63.6c-1.4-.3-4.3-.4-4,.8s4.4,2.1,5.9,1.5,1.6-1.2.6-1.8S69.1,63.7,68,63.6Z"/><path class="cls-1" d="M86.8,67.5c2.7-.4,2.3-1,.2-1.5a38.8,38.8,0,0,0-4.8-.4c-2.7-.2-8.2-.3-7.1.6S84.1,68,86.8,67.5Z"/><path class="cls-1" d="M45,177.3c-.9-.6-1.3-.4-2.4-.6s-4.3-.3-4,.8,4.3,2.1,5.9,1.6S46,177.8,45,177.3Z"/><path class="cls-1" d="M52.4,169.2c-.9-.6-1.3-.3-2.4-.5s-4.3-.3-4,.8,4.3,2.1,5.9,1.5S53.4,169.8,52.4,169.2Z"/><path class="cls-1" d="M75.9,51.3c.7,1.3,7.2,3,9.6,2.7s2.2-1,.6-1.8-2.3-.6-4-1S75.2,50.1,75.9,51.3Z"/><path class="cls-1" d="M66.2,128.5c1.6-.6,1.6-1.2.6-1.8s-1.4-.4-2.5-.5-4.3-.3-3.9.8S64.7,129.1,66.2,128.5Z"/><path class="cls-1" d="M88,83.7a7.6,7.6,0,0,0-2.5-.6c-1.4-.2-4.2-.5-3.8.4s4.3,2,5.8,1.6S89,84.2,88,83.7Z"/><path class="cls-1" d="M80.9,96.1c-1-.6-1.4-.3-2.5-.5s-4.3-.3-4,.8,4.3,2.1,5.9,1.5S81.8,96.7,80.9,96.1Z"/><path class="cls-1" d="M78.1,101.2c-1.5-.7-2-.5-3.5-.8s-6-.8-5.4.4,6.2,2.6,8.3,2.2S79.5,101.9,78.1,101.2Z"/><path class="cls-1" d="M73.3,81c-2.5-.6-7.7-1.3-7,.2s7.9,3.7,10.7,3.3,2.5-1.2.7-2.2S75.2,81.5,73.3,81Z"/><path class="cls-1" d="M36.2,143.9c.3,1.1,4.3,2.1,5.9,1.5s1.5-1.2.5-1.8a4.2,4.2,0,0,0-2.4-.5C38.8,142.8,35.9,142.7,36.2,143.9Z"/><path class="cls-1" d="M64.6,142.1c-1.3-.7-1.8-.5-3.3-.8s-5.8-.8-5.3.4,6,2.6,8.1,2.2S66,142.8,64.6,142.1Z"/></svg>