<svg xmlns="http://www.w3.org/2000/svg" viewBox="0 0 70 85.6"><path d="M22.1,7.9H.7v-4H8.8V0H14V3.9h8.2ZM11.4,23.3c-5.2,0-8.9-2.9-8.9-7.1s3.7-7,8.9-7,8.9,2.9,8.9,7S16.6,23.3,11.4,23.3Zm-.3,8.3H30.6v4.2H5.9V25.2h5.2Zm.3-12.3c2.3,0,4-1.1,4-3.1s-1.7-3-4-3-3.9,1.1-3.9,3S9.1,19.3,11.4,19.3Zm22.8-8.2v4.3H29.3V27.3H24.1V0h5.2V11.1Z"/><path d="M70,12.8v4.1H37.1V12.8H60.2A34.9,34.9,0,0,0,61,5.6H41.1V1.5h25V4a50.3,50.3,0,0,1-.6,8.8ZM46,32.1H67v4H40.8V25.8h20V23.5H40.7V19.4H66V29.7H46Z"/><path d="M12.2,58.9c0,6,1.8,12.2,7.1,15.2l-3.1,3.8A14.5,14.5,0,0,1,9.8,69c-1.3,4.2-3.4,7.7-6.7,9.8L0,75c5.3-3.4,7.2-9.9,7.2-16.1V57.1H1.3V52.9H17.5v4.2H12.2Zm7.4-9.1h4.9V83.9H19.6V65.8H15V61.6h4.6Zm12.3-.6V85.5H27V49.2Z"/><path d="M69.9,66.9v4.2H37.1V66.9H50.8V63.5H41.1V50.6H65.8V63.5H56.1v3.4ZM40.7,73.7H66V85.6H60.8V77.8H40.7Zm5.5-14.3H60.6V54.7H46.2Z"/></svg>