<svg xmlns="http://www.w3.org/2000/svg" viewBox="0 0 78 69"><path d="M2.3,2.1v8.7h8.8v1.9H2.3v8.7H12v1.9H0V.2H12V2.1Z"/><path d="M34,23.3H31.7L18.9,3.9V23.3H16.6V.3h2.3L31.7,19.6V.3H34Z"/><path d="M57.4,7a8.8,8.8,0,0,0-3-3.6,8.6,8.6,0,0,0-4.8-1.3A8.8,8.8,0,0,0,45,3.3a8.3,8.3,0,0,0-3.3,3.4,10.1,10.1,0,0,0-1.2,5.1,10.7,10.7,0,0,0,1.2,5.1A8.3,8.3,0,0,0,45,20.3a8.8,8.8,0,0,0,4.6,1.2,8.9,8.9,0,0,0,4.3-1.1A7.8,7.8,0,0,0,57,17.5,9.5,9.5,0,0,0,58.4,13H48.7V11.1H60.8v1.7a13,13,0,0,1-1.6,5.5,11.2,11.2,0,0,1-4,3.8,10.7,10.7,0,0,1-5.6,1.5,11.4,11.4,0,0,1-5.8-1.5,10.4,10.4,0,0,1-4.1-4.2,12.5,12.5,0,0,1-1.5-6.1,12.3,12.3,0,0,1,1.5-6.1,10.4,10.4,0,0,1,4.1-4.2A11.4,11.4,0,0,1,49.6,0a11.8,11.8,0,0,1,6.5,1.8,11.6,11.6,0,0,1,4,5.2Z"/><path d="M14.1,50.6a5.8,5.8,0,0,1,1.3,3.8,6.2,6.2,0,0,1-.8,3.1A5.6,5.6,0,0,1,12,59.7a8.4,8.4,0,0,1-4,.9H0V37.5H7.8a7.6,7.6,0,0,1,5.3,1.6,5.4,5.4,0,0,1,1.8,4.2,5.6,5.6,0,0,1-1.1,3.5,5.8,5.8,0,0,1-3,1.8A6.3,6.3,0,0,1,14.1,50.6ZM2.3,47.7H7.7a5.5,5.5,0,0,0,3.6-1.1,4.2,4.2,0,0,0,1.3-3.1,4.2,4.2,0,0,0-1.3-3,5.6,5.6,0,0,0-3.7-1.1H2.3Zm9.4,9.7a3.9,3.9,0,0,0,1.4-3.2,4.6,4.6,0,0,0-1.4-3.4,6.2,6.2,0,0,0-4-1.2H2.3v9H7.8A5.7,5.7,0,0,0,11.7,57.4Z"/><path d="M23,59.7a9.8,9.8,0,0,1-3.2-3.2,9.9,9.9,0,0,1-1.2-4.9,9.4,9.4,0,0,1,1.2-4.9,8.7,8.7,0,0,1,3.3-3.3,9.7,9.7,0,0,1,4.5-1.1,10.5,10.5,0,0,1,4.7,1.1,9.2,9.2,0,0,1,3.2,3.3,9.4,9.4,0,0,1,1.2,4.9,9.5,9.5,0,0,1-1.2,4.8,8.7,8.7,0,0,1-3.3,3.3,10.2,10.2,0,0,1-9.2,0ZM30.9,58a6.2,6.2,0,0,0,2.4-2.4,7.4,7.4,0,0,0,1-4,8.6,8.6,0,0,0-.9-4.1,7.1,7.1,0,0,0-2.5-2.4,7.2,7.2,0,0,0-6.6,0,6.2,6.2,0,0,0-2.4,2.4,8.6,8.6,0,0,0-.9,4.1,8.4,8.4,0,0,0,.9,4A6.2,6.2,0,0,0,24.3,58a7.2,7.2,0,0,0,6.6,0Z"/><path d="M40.9,46.7A9,9,0,0,1,44,43.4a9.4,9.4,0,0,1,4.5-1.1,8.9,8.9,0,0,1,4.3,1.1,8,8,0,0,1,2.8,3V36.1h2.3V60.6H55.6V56.5a7.4,7.4,0,0,1-2.7,3.1,8.4,8.4,0,0,1-4.5,1.2A9.3,9.3,0,0,1,44,59.7a9,9,0,0,1-3.1-3.3,10.7,10.7,0,0,1-1.1-4.9A10.3,10.3,0,0,1,40.9,46.7Zm13.8,1a6,6,0,0,0-2.5-2.5,6.3,6.3,0,0,0-3.3-.9,7.8,7.8,0,0,0-3.5.8A7.2,7.2,0,0,0,43,47.6a9.9,9.9,0,0,0,0,7.8,5.8,5.8,0,0,0,2.4,2.5,6.8,6.8,0,0,0,3.5.9,6.3,6.3,0,0,0,3.3-.9,6,6,0,0,0,2.5-2.5,7.9,7.9,0,0,0,.9-3.8A8,8,0,0,0,54.7,47.7Z"/><path d="M78,42.5,67.3,69H64.9l3.5-8.5L61,42.5h2.5l6.2,15.4,5.9-15.4Z"/></svg>