<svg xmlns="http://www.w3.org/2000/svg" viewBox="0 0 70 65.1"><path d="M6,4.1V10h7.9v3.8H6V20h8.9v3.9H1.2V.3H14.9V4.1Z"/><path d="M39.4,23.9H34.6L23.9,7.7V23.9H19.2V.3h4.7L34.6,16.5V.3h4.8Z"/><path d="M60.4,7.4a5.4,5.4,0,0,0-2.2-2.3,6.7,6.7,0,0,0-3.3-.7,7.5,7.5,0,0,0-3.7.9A6,6,0,0,0,48.7,8a8.9,8.9,0,0,0-1,4.1,9.2,9.2,0,0,0,1,4.1,7.5,7.5,0,0,0,2.6,2.7,7.6,7.6,0,0,0,3.8.9,6.8,6.8,0,0,0,4.4-1.4,7,7,0,0,0,2.3-4H53.7V10.8H66.5v4.1a12,12,0,0,1-2.1,4.6,10.9,10.9,0,0,1-4,3.3,10.9,10.9,0,0,1-5.5,1.3,11.6,11.6,0,0,1-6.1-1.6,10.3,10.3,0,0,1-4.3-4.2,11.9,11.9,0,0,1-1.6-6.2,12.1,12.1,0,0,1,1.6-6.3,11.1,11.1,0,0,1,4.3-4.3A12.5,12.5,0,0,1,54.9,0a11.9,11.9,0,0,1,6.9,1.9,10.3,10.3,0,0,1,4.1,5.5Z"/><path d="M17.3,41.2v3.9H11V64.8H6.3V45.1H0V41.2Z"/><path d="M21.1,43.1a2.7,2.7,0,0,1,0-4,2.8,2.8,0,0,1,2-.8,2.9,2.9,0,0,1,2.1.8,2.9,2.9,0,0,1,0,4,2.9,2.9,0,0,1-2.1.8A2.8,2.8,0,0,1,21.1,43.1Zm4.4,3V64.8H20.7V46.1Z"/><path d="M35.6,50v9a1.8,1.8,0,0,0,.5,1.4,2.1,2.1,0,0,0,1.5.4h2.2v4h-3c-3.9,0-5.9-1.9-5.9-5.8V50H28.6V46.1h2.3V41.5h4.7v4.6h4.2V50Z"/><path d="M47.9,39.8v25H43.2v-25Z"/><path d="M69.9,56.9H56.2A4.5,4.5,0,0,0,57.6,60a4.3,4.3,0,0,0,3.1,1.2,3.8,3.8,0,0,0,3.7-2.3h5.1a8.2,8.2,0,0,1-3.1,4.5,9.3,9.3,0,0,1-5.6,1.7,10.2,10.2,0,0,1-4.9-1.2,8.3,8.3,0,0,1-3.3-3.4,10,10,0,0,1-1.2-5,10.1,10.1,0,0,1,1.2-5.1A8.3,8.3,0,0,1,55.9,47a9.6,9.6,0,0,1,4.9-1.2,10.6,10.6,0,0,1,4.8,1.1,7.8,7.8,0,0,1,3.2,3.3A9.5,9.5,0,0,1,70,55,11.5,11.5,0,0,1,69.9,56.9Zm-4.8-3.2a3.8,3.8,0,0,0-1.3-2.9,4.5,4.5,0,0,0-3.2-1.1,4.3,4.3,0,0,0-2.9,1,4.8,4.8,0,0,0-1.5,3Z"/></svg>