<svg xmlns="http://www.w3.org/2000/svg" viewBox="0 0 70 85.5"><path d="M21.5,6.5H.2V4.7H9.8V0h2.1V4.7h9.6ZM10.8,22.1c-5.1,0-8.5-2.6-8.5-6.6s3.4-6.6,8.5-6.6,8.5,2.6,8.5,6.6S15.9,22.1,10.8,22.1Zm0-1.7c3.9,0,6.5-2.1,6.5-4.9s-2.6-4.8-6.5-4.8-6.5,1.9-6.5,4.8S7,20.4,10.8,20.4ZM7.9,33.2H29.6v1.9H5.8V24.8H7.9ZM33.4,12.3v1.8H27.8V27H25.6V0h2.2V12.3Z"/><path d="M70,13.8v1.8H37.3V13.8H62.6a45.9,45.9,0,0,0,.9-10V3.3H41.6V1.5H65.5V3.8a50.9,50.9,0,0,1-.8,10ZM43.5,33.6H66.7v1.8H41.4V26.6H63.7v-5H41.3V19.9H65.8v8.4H43.5Z"/><path d="M32.6,70.4v1.8H0V70.4H15.2V66H4.4V51.8H6.6V57H26.1V51.8h2.2V66H17.4v4.4ZM6.5,83.7H29v1.8H4.4V75.6H6.5Zm.1-19.4H26.1V58.8H6.6Z"/><path d="M70,69.1v1.8H54.8V79H52.7V70.9H37.3V69.1Zm-4.3-4.8H41.6V52.2H65.7ZM43.8,83.7H66.4v1.8H41.7V75.2h2.1ZM63.6,53.9H43.7v8.6H63.6Z"/></svg>