<svg id="Layer_1" data-name="Layer 1" xmlns="http://www.w3.org/2000/svg" viewBox="0 0 250 66.54"><defs><style>.cls-1{fill:#9825f2;}</style></defs><ellipse class="cls-1" cx="226.8" cy="16.92" rx="13.85" ry="12.2"/><path d="M53.76,33.93a8.05,8.05,0,0,0,2.07-5.43,4.07,4.07,0,0,0-1.3-3,5.16,5.16,0,0,0-1.73-1.05,8.9,8.9,0,0,0-2.8-.43,8.57,8.57,0,0,0-3.68.86q-5,2.25-9.75,9.1l-3.34,4.64q-2,2.66-6.76,8.39-6.42,7.26-9.78,8.36a4.42,4.42,0,0,1-1.6-1c-1.51-1.51-2.27-3.73-2.27-6.64A19.59,19.59,0,0,1,15,39.16a19.82,19.82,0,0,1,2.09-2,23.85,23.85,0,0,0,2.21-2A11.5,11.5,0,0,0,21,32.84a4.81,4.81,0,0,0,.71-2.35,5,5,0,0,0-.43-2,6.72,6.72,0,0,0-1.34-1.94,7.94,7.94,0,0,0-2.35-1.65,7.53,7.53,0,0,0-3.31-.7,9,9,0,0,0-3.62.77,15.58,15.58,0,0,0-6.2,5.5A25.2,25.2,0,0,0,0,45.1,29.4,29.4,0,0,0,3,58.77a17.91,17.91,0,0,0,2.74,4.1A10.71,10.71,0,0,0,8.32,65c.73.39,1.46.74,2.18,1a12,12,0,0,0,4,.45q5.05,0,18-11.37L38.17,50l6.14-6Q47.57,40.73,53.76,33.93Z"/><path d="M235.68,43.34a1.43,1.43,0,0,0-1.22-.58c-1.34,0-3.09.78-5.23,2.34l-5.41,4.22q-1.44,1.09-2.94,2.13c-1,.69-2,1.3-2.92,1.83a17.79,17.79,0,0,1-2.78,1.27,7.06,7.06,0,0,1-2.33.47,4.47,4.47,0,0,1-2.41-1c-1-.71-1.51-1.4-1.51-2.07a27.72,27.72,0,0,0,2.46-2.69c.53-.65,1.08-1.37,1.66-2.17a27,27,0,0,0,1.6-2.45,15.76,15.76,0,0,0,1.18-2.51,6.52,6.52,0,0,0,.46-2.23,14.55,14.55,0,0,0-.09-1.72c-.2-1.61-1.73-2.42-4.61-2.42a11.21,11.21,0,0,0-6.53,2.63,21.91,21.91,0,0,0-5.79,6.5l-.11.21c-.4.27-.8.55-1.21.88L192.69,50q-6.18,4.52-8.36,4.52a3.71,3.71,0,0,1-2.93-1.8,6.49,6.49,0,0,1-1.3-3.84,16.41,16.41,0,0,1,1.69-7.74A49.44,49.44,0,0,0,192.1,30.36a26.88,26.88,0,0,0,2.74-5,11.18,11.18,0,0,0,.95-4.06,3.69,3.69,0,0,0-1.45-2.93,5.16,5.16,0,0,0-1.34-.78,4.37,4.37,0,0,0-1.6-.28,6.17,6.17,0,0,0-2.49.83q-5.24,2.63-11.14,10c-5,6.15-7.89,11.86-8.89,17.15l-1,.78-3.57,2.87c-.69.53-1.36,1-2,1.46a19.54,19.54,0,0,1-1.76,1.09,2.85,2.85,0,0,1-1.23.43c-.28,0-.6-.48-1-1.45-.16-.41-.31-.88-.47-1.4s-.33-1-.5-1.55a4.18,4.18,0,0,0-4.32-2.86q-3.84,0-9.54,3.42l-2.45,1.45c-3.74,2.2-6.12,3.31-7.15,3.31s-1.56-.33-1.56-1a2.88,2.88,0,0,1,1.09-2q3.84-3.72,12.11-7.17l3.72-1.6a5.19,5.19,0,0,0,2.07-1.33,3.11,3.11,0,0,0,.5-1.95A1.68,1.68,0,0,0,150,35.88q-5.67,0-14.89,3.46-9.74,3.69-14.26,8.12c-.14.13-.26.27-.39.41l-.38.3q-8.47,6.77-14.86,6.76a6.89,6.89,0,0,1-4.7-1.71,5.86,5.86,0,0,1-1.37-1.82,4.71,4.71,0,0,1-.49-2.09,4.3,4.3,0,0,1,1-2.44,6.17,6.17,0,0,1,3-2.27,17.57,17.57,0,0,0,6.38,1,8.41,8.41,0,0,0,5.14-1.71,7.36,7.36,0,0,0,2-2.2,5.49,5.49,0,0,0,.77-2.8,2.72,2.72,0,0,0-1.18-2.33,4.09,4.09,0,0,0-1.26-.6,6.06,6.06,0,0,0-1.78-.23,26.84,26.84,0,0,0-3.58.39A45.2,45.2,0,0,0,96.8,40a29.77,29.77,0,0,0-8.14,5.2l-1,.53a11.12,11.12,0,0,1-5.26,2c-1.81,0-2.71-.53-2.71-1.6a2.68,2.68,0,0,1,.17-.88,3.9,3.9,0,0,0,.18-1.33,6.4,6.4,0,0,0-1.89-4.76,8.69,8.69,0,0,0-2.47-1.64,8.54,8.54,0,0,0-3.79-.81,36.11,36.11,0,0,0-10.69,1.86A51.45,51.45,0,0,0,55,41a33.27,33.27,0,0,0-7.19,4.76q-5.06,4.28-5.06,9a10.88,10.88,0,0,0,2.34,6.47,9.3,9.3,0,0,0,7.88,3.93q4.77,0,11.14-3.2a29.79,29.79,0,0,0,9.16-6.61c.37.25.76.5,1.15.74a10.47,10.47,0,0,0,5.14,1.09,11.18,11.18,0,0,0,5-1.31A9.49,9.49,0,0,0,85.81,59a12.29,12.29,0,0,0,1.83,2.25,11.86,11.86,0,0,0,2.59,1.87,14.42,14.42,0,0,0,3.37,1.3,18.88,18.88,0,0,0,4.72.49,26.91,26.91,0,0,0,6-.74,39.91,39.91,0,0,0,13.92-6,10.53,10.53,0,0,0,2,3.41,8.77,8.77,0,0,0,6.94,3.22q3.24,0,9.75-3.54l3.63-2.07,6.29-3.87.71,2.57A10.09,10.09,0,0,0,150,62.55q1.83,1.73,6,.15,6-2.27,12.82-8.65a16,16,0,0,0,2.75,6.73,9.27,9.27,0,0,0,7.79,4.14q6.62,0,15-6.74c.93-.75,1.81-1.51,2.67-2.27a12.18,12.18,0,0,0,3.47,5.64,13.83,13.83,0,0,0,3.92,2.65,10.3,10.3,0,0,0,4.25,1,13.52,13.52,0,0,0,4.18-.7,28.18,28.18,0,0,0,4.37-1.86,42.54,42.54,0,0,0,4.51-2.72c1.5-1,3-2.12,4.36-3.26s2.69-2.31,3.89-3.49a45,45,0,0,0,3.15-3.4,21.16,21.16,0,0,0,2.11-3,4.77,4.77,0,0,0,.77-2.12A2.15,2.15,0,0,0,235.68,43.34ZM67.91,49.2a25.64,25.64,0,0,1-6.08,3.67,21.06,21.06,0,0,1-2.87,1,3.57,3.57,0,0,1-2.86-.43,1.91,1.91,0,0,1-.57-1.66v0l0-.08a2.61,2.61,0,0,1,.71-1.39,23.75,23.75,0,0,1,6.65-5.05C65.6,43.74,67.72,43,69.3,43a6.51,6.51,0,0,0-1.86,4.25A4.37,4.37,0,0,0,67.91,49.2Z"/><path d="M250,17.93c0-2.7-3.45-4.89-4.89-4.89h-1V12.6l-.1-.42C243,8,238.17,0,226.4,0s-16.65,8-17.58,12.18l-.09.42V13h-1c-2.7,0-6.48,2.19-6.48,4.89s3.78,4.9,6.48,4.9h1v.55l.15.53c.12.41,3,9.93,17.52,9.93s17.4-9.52,17.52-9.93l.08-1.29C246.68,22,250,20.15,250,17.93Zm-23.6-10c6.45,0,8.78,3.44,9.53,5.12H216.87C217.65,11.32,220,7.92,226.4,7.92Zm0,18c-5.52,0-8.06-1.82-9.17-3.09h18.33C234.46,24.1,231.91,25.92,226.4,25.92Z"/></svg>